<svg width="159" height="40" viewBox="0 0 159 40" fill="none" xmlns="http://www.w3.org/2000/svg">
<path d="M61.5006 3.90266L61.7424 5.12904L61.5006 3.90266ZM157.586 28.9397C158.266 28.8195 158.72 28.1709 158.6 27.4911L156.64 16.413C156.52 15.7332 155.872 15.2796 155.192 15.3998C154.512 15.5201 154.058 16.1686 154.179 16.8484L155.92 26.6956L146.073 28.4372C145.393 28.5574 144.94 29.2059 145.06 29.8858C145.18 30.5656 145.829 31.0192 146.508 30.899L157.586 28.9397ZM3.29009 37.7965C3.76801 37.2983 3.75158 36.507 3.2534 36.0291C2.75522 35.5512 1.96393 35.5676 1.48601 36.0658L3.29009 37.7965ZM5.84548 31.7552C5.34199 32.2275 5.31672 33.0185 5.78904 33.522C6.26136 34.0255 7.05241 34.0508 7.5559 33.5785L5.84548 31.7552ZM10.5194 30.8941C11.039 30.4396 11.0918 29.6499 10.6373 29.1302C10.1828 28.6106 9.39315 28.5578 8.87351 29.0123L10.5194 30.8941ZM13.5917 25.0972C13.0492 25.5241 12.9555 26.31 13.3824 26.8525C13.8094 27.395 14.5953 27.4887 15.1378 27.0618L13.5917 25.0972ZM18.323 24.6427C18.8798 24.2346 19.0005 23.4524 18.5924 22.8955C18.1844 22.3387 17.4022 22.2181 16.8453 22.6261L18.323 24.6427ZM21.8803 19.1317C21.3032 19.5107 21.1426 20.2857 21.5215 20.8627C21.9005 21.4398 22.6755 21.6004 23.2525 21.2215L21.8803 19.1317ZM26.6343 19.0825C27.224 18.7235 27.4109 17.9544 27.0519 17.3648C26.6929 16.7751 25.9239 16.5881 25.3342 16.9471L26.6343 19.0825ZM30.649 13.8955C30.0416 14.2237 29.8154 14.9822 30.1436 15.5895C30.4719 16.1968 31.2303 16.4231 31.8377 16.0948L30.649 13.8955ZM35.3882 14.2542C36.0064 13.9471 36.2587 13.1969 35.9516 12.5786C35.6445 11.9603 34.8944 11.7081 34.2761 12.0151L35.3882 14.2542ZM39.8358 9.43292C39.2022 9.70711 38.9109 10.443 39.1851 11.0766C39.4593 11.7101 40.1952 12.0015 40.8287 11.7273L39.8358 9.43292ZM44.5268 10.2047C45.1698 9.95334 45.4873 9.22836 45.236 8.58537C44.9846 7.94239 44.2597 7.62488 43.6167 7.87619L44.5268 10.2047ZM49.3896 5.80137C48.7336 6.01659 48.3764 6.72281 48.5916 7.37877C48.8068 8.03472 49.513 8.392 50.169 8.17678L49.3896 5.80137ZM53.9879 7.00463C54.6517 6.81498 55.0361 6.12312 54.8464 5.45933C54.6568 4.79553 53.9649 4.41116 53.3011 4.60082L53.9879 7.00463ZM59.2539 3.09453C58.5796 3.24285 58.1533 3.90967 58.3016 4.5839C58.4499 5.25814 59.1168 5.68447 59.791 5.53615L59.2539 3.09453ZM63.7193 4.75504C64.3987 4.63207 64.8497 3.98169 64.7267 3.30237C64.6037 2.62306 63.9533 2.17205 63.274 2.29503L63.7193 4.75504ZM69.3683 1.35074C68.6836 1.43846 68.1996 2.06468 68.2873 2.74944C68.375 3.4342 69.0012 3.9182 69.686 3.83048L69.3683 1.35074ZM73.6797 3.39297C74.3672 3.33052 74.8739 2.72255 74.8115 2.03502C74.749 1.3475 74.1411 0.840773 73.4535 0.903226L73.6797 3.39297ZM79.6101 0.519877C78.9201 0.543027 78.3796 1.12112 78.4027 1.81109C78.4259 2.50106 79.004 3.04162 79.694 3.01847L79.6101 0.519877ZM83.7206 2.96121C84.411 2.96475 84.9735 2.40799 84.977 1.71764C84.9806 1.02729 84.4238 0.464783 83.7335 0.46124L83.7206 2.96121ZM89.897 0.671429C89.208 0.62797 88.6142 1.15127 88.5708 1.84026C88.5273 2.52925 89.0506 3.12301 89.7396 3.16647L89.897 0.671429ZM93.7442 3.49622C94.431 3.566 95.0444 3.06579 95.1141 2.37897C95.1839 1.69214 94.6837 1.0788 93.9969 1.00902L93.7442 3.49622ZM100.117 1.80654C99.4353 1.69814 98.7947 2.16296 98.6863 2.84476C98.5779 3.52655 99.0427 4.16713 99.7245 4.27553L100.117 1.80654ZM103.691 4.98144C104.368 5.11484 105.025 4.6739 105.159 3.99656C105.292 3.31921 104.851 2.66197 104.174 2.52856L103.691 4.98144ZM110.189 3.88235C109.52 3.71294 108.84 4.11814 108.67 4.78739C108.501 5.45664 108.906 6.1365 109.576 6.30591L110.189 3.88235ZM113.458 7.36056C114.121 7.55291 114.815 7.17135 115.007 6.50833C115.199 5.84531 114.818 5.1519 114.155 4.95955L113.458 7.36056ZM120.027 6.82376C119.375 6.59874 118.663 6.94541 118.438 7.59807C118.213 8.25072 118.56 8.96222 119.213 9.18723L120.027 6.82376ZM123.003 10.5623C123.648 10.8079 124.37 10.484 124.616 9.83881C124.862 9.19363 124.538 8.47148 123.893 8.22585L123.003 10.5623ZM129.585 10.5438C128.952 10.2692 128.216 10.5599 127.941 11.1933C127.667 11.8267 127.957 12.5628 128.591 12.8374L129.585 10.5438ZM132.265 14.4949C132.891 14.7877 133.635 14.5183 133.928 13.8931C134.22 13.268 133.951 12.5238 133.326 12.2309L132.265 14.4949ZM138.852 14.9615C138.239 14.643 137.485 14.8815 137.166 15.494C136.848 16.1065 137.086 16.8612 137.699 17.1796L138.852 14.9615ZM141.257 19.0889C141.861 19.4233 142.621 19.2046 142.956 18.6006C143.29 17.9966 143.071 17.2359 142.467 16.9016L141.257 19.0889ZM147.776 19.9714C147.185 19.6149 146.417 19.8052 146.06 20.3964C145.704 20.9876 145.894 21.7558 146.485 22.1123L147.776 19.9714ZM149.92 24.2394C150.503 24.6097 151.275 24.4376 151.645 23.8549C152.016 23.2723 151.844 22.4998 151.261 22.1295L149.92 24.2394ZM156.386 25.5098C155.816 25.1202 155.039 25.2665 154.649 25.8364C154.259 26.4063 154.406 27.1842 154.976 27.5737L156.386 25.5098ZM1.91778 39.2526C2.3721 38.7619 2.82958 38.2766 3.29009 37.7965L1.48601 36.0658C1.01534 36.5565 0.547749 37.0525 0.0833761 37.554L1.91778 39.2526ZM7.5559 33.5785C8.53318 32.6617 9.5214 31.7669 10.5194 30.8941L8.87351 29.0123C7.85385 29.9041 6.84411 30.8184 5.84548 31.7552L7.5559 33.5785ZM15.1378 27.0618C16.1915 26.2325 17.2537 25.4262 18.323 24.6427L16.8453 22.6261C15.7531 23.4264 14.6681 24.2501 13.5917 25.0972L15.1378 27.0618ZM23.2525 21.2215C24.3747 20.4845 25.5024 19.7716 26.6343 19.0825L25.3342 16.9471C24.1782 17.6509 23.0264 18.3791 21.8803 19.1317L23.2525 21.2215ZM31.8377 16.0948C33.0196 15.456 34.2036 14.8425 35.3882 14.2542L34.2761 12.0151C33.0659 12.6162 31.8563 13.243 30.649 13.8955L31.8377 16.0948ZM40.8287 11.7273C42.0641 11.1926 43.2974 10.6852 44.5268 10.2047L43.6167 7.87619C42.3594 8.36759 41.0986 8.88643 39.8358 9.43292L40.8287 11.7273ZM50.169 8.17678C51.4502 7.75642 52.7239 7.36579 53.9879 7.00463L53.3011 4.60082C52.0058 4.97092 50.7012 5.37103 49.3896 5.80137L50.169 8.17678ZM59.791 5.53615C60.4453 5.39222 61.0959 5.25653 61.7424 5.12904L61.2588 2.67627C60.5942 2.80731 59.9258 2.94672 59.2539 3.09453L59.791 5.53615ZM61.7424 5.12904C62.3861 5.00213 63.0451 4.8771 63.7193 4.75504L63.274 2.29503C62.5863 2.41953 61.9145 2.54699 61.2588 2.67627L61.7424 5.12904ZM69.686 3.83048C70.9748 3.66537 72.3063 3.51773 73.6797 3.39297L73.4535 0.903226C72.0481 1.03089 70.6861 1.18193 69.3683 1.35074L69.686 3.83048ZM79.694 3.01847C81.0049 2.97449 82.3473 2.95416 83.7206 2.96121L83.7335 0.46124C82.3271 0.45402 80.9524 0.474841 79.6101 0.519877L79.694 3.01847ZM89.7396 3.16647C91.0503 3.24915 92.3853 3.35816 93.7442 3.49622L93.9969 1.00902C92.6059 0.867695 91.2391 0.756083 89.897 0.671429L89.7396 3.16647ZM99.7245 4.27553C101.027 4.48266 102.349 4.71727 103.691 4.98144L104.174 2.52856C102.802 2.25843 101.45 2.01846 100.117 1.80654L99.7245 4.27553ZM109.576 6.30591C110.854 6.62959 112.149 6.98061 113.458 7.36056L114.155 4.95955C112.817 4.5716 111.495 4.21306 110.189 3.88235L109.576 6.30591ZM119.213 9.18723C120.463 9.61845 121.727 10.0764 123.003 10.5623L123.893 8.22585C122.592 7.73057 121.303 7.26362 120.027 6.82376L119.213 9.18723ZM128.591 12.8374C129.805 13.364 131.03 13.9162 132.265 14.4949L133.326 12.2309C132.069 11.6421 130.822 11.08 129.585 10.5438L128.591 12.8374ZM137.699 17.1796C138.876 17.7916 140.062 18.4277 141.257 19.0889L142.467 16.9016C141.254 16.2299 140.048 15.5835 138.852 14.9615L137.699 17.1796ZM146.485 22.1123C147.623 22.7983 148.768 23.5071 149.92 24.2394L151.261 22.1295C150.092 21.3867 148.931 20.6676 147.776 19.9714L146.485 22.1123ZM154.976 27.5737C155.533 27.9546 156.092 28.3411 156.652 28.7331L158.085 26.6845C157.517 26.2873 156.951 25.8958 156.386 25.5098L154.976 27.5737Z" fill="#8C8C8C"/>
</svg>
