<svg width="77" height="28" viewBox="0 0 77 28" fill="none" xmlns="http://www.w3.org/2000/svg">
<path d="M74.568 27.8262C75.2579 27.8496 75.8363 27.3093 75.8597 26.6193L76.2419 15.3758C76.2654 14.6859 75.7251 14.1076 75.0351 14.0841C74.3452 14.0606 73.7669 14.6009 73.7434 15.2909L73.4036 25.2851L63.4094 24.9454C62.7194 24.9219 62.1411 25.4622 62.1177 26.1522C62.0942 26.8421 62.6345 27.4205 63.3245 27.4439L74.568 27.8262ZM2.55415 4.65503C3.22607 4.49655 3.64229 3.82338 3.48381 3.15146C3.32532 2.47954 2.65215 2.06332 1.98023 2.2218L2.55415 4.65503ZM7.38963 1.24933C6.70497 1.33781 6.22167 1.96457 6.31015 2.64923C6.39864 3.33389 7.02539 3.81719 7.71005 3.72871L7.38963 1.24933ZM11.202 3.37876C11.8905 3.32862 12.408 2.72981 12.3579 2.04127C12.3077 1.35274 11.7089 0.835223 11.0204 0.885366L11.202 3.37876ZM16.473 0.686627C15.7826 0.688288 15.2243 1.24928 15.226 1.93963C15.2276 2.62998 15.7886 3.18828 16.479 3.18662L16.473 0.686627ZM20.0071 3.25069C20.6969 3.27693 21.2774 2.73896 21.3037 2.0491C21.3299 1.35924 20.7919 0.778733 20.1021 0.752496L20.0071 3.25069ZM25.5279 1.1094C24.8405 1.04572 24.2316 1.55135 24.168 2.23877C24.1043 2.92618 24.6099 3.53506 25.2973 3.59874L25.5279 1.1094ZM28.8126 3.98473C29.4975 4.0716 30.1231 3.58683 30.21 2.90196C30.2968 2.21709 29.8121 1.59148 29.1272 1.50461L28.8126 3.98473ZM34.4972 2.32319C33.8176 2.20181 33.1683 2.65434 33.0469 3.33394C32.9255 4.01354 33.378 4.66286 34.0576 4.78424L34.4972 2.32319ZM37.5441 5.4779C38.2178 5.62844 38.886 5.2043 39.0366 4.53056C39.1871 3.85682 38.763 3.1886 38.0892 3.03806L37.5441 5.4779ZM43.4678 4.4763C42.8091 4.26952 42.1075 4.63585 41.9008 5.29452C41.694 5.95318 42.0603 6.65475 42.719 6.86153L43.4678 4.4763ZM46.0898 8.02972C46.7352 8.27493 47.4571 7.95056 47.7023 7.30522C47.9475 6.65988 47.6231 5.93794 46.9778 5.69274L46.0898 8.02972ZM52.0934 7.89844C51.472 7.5978 50.7245 7.85786 50.4238 8.47931C50.1232 9.10076 50.3832 9.84827 51.0047 10.1489L52.0934 7.89844ZM54.1763 11.7955C54.78 12.1305 55.5409 11.9128 55.8759 11.3091C56.2109 10.7055 55.9932 9.94462 55.3896 9.60959L54.1763 11.7955ZM60.1408 12.5021C59.5656 12.1203 58.7898 12.2771 58.4081 12.8523C58.0263 13.4275 58.1831 14.2032 58.7583 14.585L60.1408 12.5021ZM61.6919 16.6389C62.2476 17.0485 63.0302 16.93 63.4397 16.3743C63.8493 15.8186 63.7308 15.036 63.1751 14.6264L61.6919 16.6389ZM67.5231 18.0688C66.9965 17.6225 66.2077 17.6876 65.7613 18.2142C65.3149 18.7408 65.38 19.5296 65.9067 19.976L67.5231 18.0688ZM68.5963 22.3546C69.1039 22.8225 69.8947 22.7902 70.3626 22.2826C70.8304 21.7749 70.7982 20.9841 70.2905 20.5163L68.5963 22.3546ZM74.2518 24.3857C73.7716 23.8897 72.9803 23.8768 72.4842 24.3569C71.9882 24.8371 71.9753 25.6284 72.4554 26.1244L74.2518 24.3857ZM0.871732 5.08792C1.42511 4.93316 1.9862 4.789 2.55415 4.65503L1.98023 2.2218C1.38034 2.3633 0.786055 2.51595 0.198369 2.68032L0.871732 5.08792ZM7.71005 3.72871C8.86185 3.57986 10.028 3.46426 11.202 3.37876L11.0204 0.885366C9.80334 0.973997 8.5908 1.0941 7.38963 1.24933L7.71005 3.72871ZM16.479 3.18662C17.6599 3.18378 18.8381 3.20623 20.0071 3.25069L20.1021 0.752496C18.9014 0.706832 17.6895 0.683702 16.473 0.686627L16.479 3.18662ZM25.2973 3.59874C26.4944 3.70963 27.6688 3.83965 28.8126 3.98473L29.1272 1.50461C27.9565 1.35611 26.7541 1.22299 25.5279 1.1094L25.2973 3.59874ZM34.0576 4.78424C34.6516 4.89033 35.2307 4.99923 35.7934 5.11016L36.2769 2.65737C35.6995 2.54355 35.1058 2.43189 34.4972 2.32319L34.0576 4.78424ZM35.7934 5.11016C36.3628 5.22241 36.9465 5.34438 37.5441 5.4779L38.0892 3.03806C37.4697 2.89964 36.8654 2.77337 36.2769 2.65737L35.7934 5.11016ZM42.719 6.86153C43.8105 7.20419 44.935 7.59094 46.0898 8.02972L46.9778 5.69274C45.7752 5.23577 44.6041 4.83303 43.4678 4.4763L42.719 6.86153ZM51.0047 10.1489C52.0432 10.6513 53.101 11.1986 54.1763 11.7955L55.3896 9.60959C54.2729 8.98978 53.1736 8.42101 52.0934 7.89844L51.0047 10.1489ZM58.7583 14.585C59.7249 15.2266 60.7032 15.9102 61.6919 16.6389L63.1751 14.6264C62.1535 13.8735 61.1417 13.1664 60.1408 12.5021L58.7583 14.585ZM65.9067 19.976C66.7965 20.7301 67.6932 21.5223 68.5963 22.3546L70.2905 20.5163C69.3623 19.6608 68.4396 18.8456 67.5231 18.0688L65.9067 19.976ZM72.4554 26.1244C72.8683 26.5509 73.2822 26.9861 73.697 27.4302L75.5238 25.7235C75.099 25.2688 74.6749 24.8229 74.2518 24.3857L72.4554 26.1244Z" fill="#8C8C8C"/>
</svg>
