<svg width="77" height="28" viewBox="0 0 77 28" fill="none" xmlns="http://www.w3.org/2000/svg">
<path d="M74.568 0.812514C75.2579 0.789059 75.8363 1.32936 75.8597 2.01932L76.2419 13.2628C76.2654 13.9528 75.7251 14.5311 75.0351 14.5546C74.3452 14.578 73.7669 14.0377 73.7434 13.3478L73.4036 3.35354L63.4094 3.6933C62.7194 3.71676 62.1411 3.17645 62.1177 2.4865C62.0942 1.79654 62.6345 1.2182 63.3245 1.19475L74.568 0.812514ZM2.55415 23.9836C3.22607 24.1421 3.64229 24.8153 3.48381 25.4872C3.32532 26.1591 2.65215 26.5754 1.98023 26.4169L2.55415 23.9836ZM7.38963 27.3893C6.70497 27.3009 6.22167 26.6741 6.31015 25.9894C6.39864 25.3048 7.02539 24.8215 7.71005 24.91L7.38963 27.3893ZM11.202 25.2599C11.8905 25.3101 12.408 25.9089 12.3579 26.5974C12.3077 27.2859 11.7089 27.8034 11.0204 27.7533L11.202 25.2599ZM16.473 27.952C15.7826 27.9504 15.2243 27.3894 15.226 26.699C15.2276 26.0087 15.7886 25.4504 16.479 25.4521L16.473 27.952ZM20.0071 25.388C20.6969 25.3617 21.2774 25.8997 21.3037 26.5896C21.3299 27.2794 20.7919 27.8599 20.1021 27.8862L20.0071 25.388ZM25.5279 27.5293C24.8405 27.593 24.2316 27.0873 24.168 26.3999C24.1043 25.7125 24.6099 25.1036 25.2973 25.0399L25.5279 27.5293ZM28.8126 24.6539C29.4975 24.5671 30.1231 25.0518 30.21 25.7367C30.2968 26.4216 29.8121 27.0472 29.1272 27.1341L28.8126 24.6539ZM34.4972 26.3155C33.8176 26.4369 33.1683 25.9843 33.0469 25.3047C32.9255 24.6251 33.378 23.9758 34.0576 23.8544L34.4972 26.3155ZM37.5441 23.1608C38.2178 23.0102 38.886 23.4344 39.0366 24.1081C39.1871 24.7819 38.763 25.4501 38.0892 25.6006L37.5441 23.1608ZM43.4678 24.1624C42.8091 24.3691 42.1075 24.0028 41.9008 23.3442C41.694 22.6855 42.0603 21.9839 42.719 21.7771L43.4678 24.1624ZM46.0898 20.6089C46.7352 20.3637 47.4571 20.6881 47.7023 21.3335C47.9475 21.9788 47.6231 22.7007 46.9778 22.9459L46.0898 20.6089ZM52.0934 20.7402C51.472 21.0409 50.7245 20.7808 50.4238 20.1594C50.1232 19.5379 50.3832 18.7904 51.0047 18.4898L52.0934 20.7402ZM54.1763 16.8432C54.78 16.5082 55.5409 16.7259 55.8759 17.3295C56.2109 17.9331 55.9932 18.6941 55.3896 19.0291L54.1763 16.8432ZM60.1408 16.1366C59.5656 16.5184 58.7898 16.3616 58.4081 15.7864C58.0263 15.2112 58.1831 14.4354 58.7583 14.0537L60.1408 16.1366ZM61.6919 11.9997C62.2476 11.5902 63.0302 11.7086 63.4397 12.2644C63.8493 12.8201 63.7308 13.6026 63.1751 14.0122L61.6919 11.9997ZM67.5231 10.5698C66.9965 11.0162 66.2077 10.9511 65.7613 10.4245C65.3149 9.89784 65.38 9.10906 65.9067 8.6627L67.5231 10.5698ZM68.5963 6.28407C69.1039 5.81621 69.8947 5.84846 70.3626 6.35609C70.8304 6.86373 70.7982 7.65453 70.2905 8.12239L68.5963 6.28407ZM74.2518 4.25296C73.7716 4.749 72.9803 4.7619 72.4842 4.28176C71.9882 3.80162 71.9753 3.01027 72.4554 2.51423L74.2518 4.25296ZM0.871732 23.5507C1.42511 23.7055 1.9862 23.8497 2.55415 23.9836L1.98023 26.4169C1.38034 26.2754 0.786055 26.1227 0.198369 25.9584L0.871732 23.5507ZM7.71005 24.91C8.86185 25.0588 10.028 25.1744 11.202 25.2599L11.0204 27.7533C9.80334 27.6647 8.5908 27.5446 7.38963 27.3893L7.71005 24.91ZM16.479 25.4521C17.6599 25.4549 18.8381 25.4324 20.0071 25.388L20.1021 27.8862C18.9014 27.9318 17.6895 27.955 16.473 27.952L16.479 25.4521ZM25.2973 25.0399C26.4944 24.929 27.6688 24.799 28.8126 24.6539L29.1272 27.1341C27.9565 27.2826 26.7541 27.4157 25.5279 27.5293L25.2973 25.0399ZM34.0576 23.8544C34.6516 23.7483 35.2307 23.6394 35.7934 23.5285L36.2769 25.9813C35.6995 26.0951 35.1058 26.2068 34.4972 26.3155L34.0576 23.8544ZM35.7934 23.5285C36.3628 23.4163 36.9465 23.2943 37.5441 23.1608L38.0892 25.6006C37.4697 25.739 36.8654 25.8653 36.2769 25.9813L35.7934 23.5285ZM42.719 21.7771C43.8105 21.4345 44.935 21.0477 46.0898 20.6089L46.9778 22.9459C45.7752 23.4029 44.6041 23.8056 43.4678 24.1624L42.719 21.7771ZM51.0047 18.4898C52.0432 17.9873 53.101 17.4401 54.1763 16.8432L55.3896 19.0291C54.2729 19.6489 53.1736 20.2177 52.0934 20.7402L51.0047 18.4898ZM58.7583 14.0537C59.7249 13.412 60.7032 12.7284 61.6919 11.9997L63.1751 14.0122C62.1535 14.7651 61.1417 15.4722 60.1408 16.1366L58.7583 14.0537ZM65.9067 8.6627C66.7965 7.90852 67.6932 7.11635 68.5963 6.28407L70.2905 8.12239C69.3623 8.9779 68.4396 9.79303 67.5231 10.5698L65.9067 8.6627ZM72.4554 2.51423C72.8683 2.08773 73.2822 1.65253 73.697 1.20845L75.5238 2.91513C75.099 3.36992 74.6749 3.8158 74.2518 4.25296L72.4554 2.51423Z" fill="#8C8C8C"/>
</svg>
