<svg width="30" height="30" viewBox="0 0 30 30" fill="none" xmlns="http://www.w3.org/2000/svg">
<path d="M28.8281 28.147C28.8281 28.6993 28.3804 29.147 27.8281 29.147H19.0469C18.4946 29.147 18.0469 28.6993 18.0469 28.147V19.6782C18.0469 14.3657 18.6562 10.4126 19.875 7.81885C21.2692 4.88813 23.5313 2.63101 26.6614 1.04747C27.1706 0.789818 27.7808 1.04571 27.9857 1.57842L29.3636 5.16115C29.5604 5.67269 29.3062 6.24313 28.8128 6.48189C27.1483 7.28743 25.9034 8.34246 25.0781 9.64697C24.2616 10.9807 23.7888 12.753 23.6597 14.9639C23.6273 15.5198 24.0799 15.9751 24.6367 15.9751H27.8281C28.3804 15.9751 28.8281 16.4228 28.8281 16.9751V28.147ZM10.8281 28.147C10.8281 28.6993 10.3804 29.147 9.82812 29.147H1C0.447715 29.147 0 28.6993 0 28.147V19.6782C0 14.3345 0.6875 10.2095 2.0625 7.30322C3.34175 4.65943 5.52613 2.57164 8.61563 1.03985C9.12553 0.787041 9.73293 1.04322 9.93724 1.57442L11.3186 5.16585C11.5146 5.67554 11.2629 6.24403 10.7728 6.48484C9.13398 7.29 7.90242 8.34405 7.07812 9.64697C6.26297 10.9784 5.77857 12.7469 5.62494 14.9525C5.58594 15.5125 6.04026 15.9751 6.60165 15.9751H9.82812C10.3804 15.9751 10.8281 16.4228 10.8281 16.9751V28.147Z" fill="#A1CA6B"/>
</svg>
