<svg width="67" height="19" viewBox="0 0 67 19" fill="none" xmlns="http://www.w3.org/2000/svg">
<path d="M0.774959 13.2001C0.174657 13.541 -0.0356119 14.304 0.305311 14.9043C0.646234 15.5046 1.40925 15.7149 2.00955 15.374L0.774959 13.2001ZM66.0973 13.1509C66.7121 12.8368 66.9558 12.0838 66.6416 11.469L61.5225 1.45119C61.2084 0.836446 60.4554 0.592753 59.8406 0.906887C59.2259 1.22102 58.9822 1.97403 59.2963 2.58877L63.8467 11.4935L54.9419 16.0438C54.3272 16.358 54.0835 17.111 54.3976 17.7257C54.7118 18.3405 55.4648 18.5842 56.0795 18.27L66.0973 13.1509ZM3.63789 14.4781C4.24727 14.1537 4.47826 13.3967 4.15384 12.7873C3.82941 12.178 3.07241 11.947 2.46304 12.2714L3.63789 14.4781ZM7.68248 9.77625C7.04696 10.0459 6.75038 10.7797 7.02004 11.4152C7.28969 12.0507 8.02348 12.3473 8.65899 12.0776L7.68248 9.77625ZM12.1137 10.7365C12.7648 10.5069 13.1065 9.79305 12.877 9.14197C12.6474 8.49089 11.9336 8.14917 11.2825 8.37872L12.1137 10.7365ZM16.833 6.71526C16.163 6.88157 15.7546 7.55955 15.9209 8.22957C16.0872 8.8996 16.7652 9.30794 17.4352 9.14164L16.833 6.71526ZM21.0581 8.36333C21.7373 8.23961 22.1876 7.58873 22.0638 6.90955C21.9401 6.23037 21.2892 5.78008 20.6101 5.9038L21.0581 8.36333ZM26.3462 5.12802C25.6586 5.18987 25.1514 5.79741 25.2132 6.48499C25.2751 7.17257 25.8826 7.67982 26.5702 7.61797L26.3462 5.12802ZM30.2766 7.39049C30.9666 7.36736 31.5071 6.78928 31.484 6.09931C31.4609 5.40934 30.8828 4.86876 30.1928 4.8919L30.2766 7.39049ZM35.9628 4.92458C35.273 4.89468 34.6897 5.42956 34.6598 6.11926C34.6299 6.80897 35.1648 7.39233 35.8545 7.42223L35.9628 4.92458ZM39.5733 7.67067C40.2609 7.73229 40.8683 7.22483 40.9299 6.53723C40.9915 5.84963 40.4841 5.24227 39.7965 5.18064L39.5733 7.67067ZM45.5104 5.87473C44.8279 5.77093 44.1905 6.24007 44.0867 6.92258C43.9829 7.60509 44.452 8.24251 45.1345 8.34631L45.5104 5.87473ZM48.8163 8.9759C49.4946 9.10438 50.1486 8.65866 50.2771 7.98037C50.4055 7.30207 49.9598 6.64805 49.2815 6.51957L48.8163 8.9759ZM54.8922 7.72652C54.2209 7.56551 53.5462 7.97919 53.3852 8.65051C53.2242 9.32183 53.6378 9.99656 54.3092 10.1576L54.8922 7.72652ZM57.9416 11.0844C58.6081 11.2644 59.2943 10.87 59.4743 10.2035C59.6543 9.53707 59.2599 8.85086 58.5935 8.67087L57.9416 11.0844ZM64.0881 10.2693C63.4289 10.0643 62.7283 10.4325 62.5233 11.0917C62.3183 11.7509 62.6865 12.4515 63.3457 12.6565L64.0881 10.2693ZM2.00955 15.374C2.54923 15.0675 3.09192 14.7688 3.63789 14.4781L2.46304 12.2714C1.89662 12.5729 1.33401 12.8826 0.774959 13.2001L2.00955 15.374ZM8.65899 12.0776C9.7933 11.5963 10.9442 11.1488 12.1137 10.7365L11.2825 8.37872C10.0629 8.80869 8.86363 9.27507 7.68248 9.77625L8.65899 12.0776ZM17.4352 9.14164C18.6213 8.84723 19.8283 8.58735 21.0581 8.36333L20.6101 5.9038C19.3286 6.13725 18.0702 6.40818 16.833 6.71526L17.4352 9.14164ZM26.5702 7.61797C27.7825 7.50892 29.0174 7.43271 30.2766 7.39049L30.1928 4.8919C28.8876 4.93566 27.6059 5.01471 26.3462 5.12802L26.5702 7.61797ZM35.8545 7.42223C37.0714 7.47499 38.3106 7.5575 39.5733 7.67067L39.7965 5.18064C38.4965 5.06414 37.219 4.97904 35.9628 4.92458L35.8545 7.42223ZM45.1345 8.34631C46.3408 8.52976 47.5678 8.7394 48.8163 8.9759L49.2815 6.51957C48.0042 6.27762 46.7474 6.06286 45.5104 5.87473L45.1345 8.34631ZM54.3092 10.1576C55.501 10.4434 56.7116 10.7522 57.9416 11.0844L58.5935 8.67087C57.3412 8.33268 56.1077 8.01804 54.8922 7.72652L54.3092 10.1576ZM63.3457 12.6565C63.9407 12.8415 64.54 13.0317 65.1437 13.2271L65.9134 10.8486C65.3008 10.6503 64.6924 10.4572 64.0881 10.2693L63.3457 12.6565Z" fill="#8C8C8C"/>
</svg>
