<svg width="67" height="19" viewBox="0 0 67 19" fill="none" xmlns="http://www.w3.org/2000/svg">
<path d="M0.774959 6.2052C0.174657 5.86427 -0.0356119 5.10126 0.305311 4.50096C0.646234 3.90066 1.40925 3.69039 2.00955 4.03131L0.774959 6.2052ZM66.0973 6.25436C66.7121 6.56849 66.9558 7.3215 66.6416 7.93624L61.5225 17.9541C61.2084 18.5688 60.4554 18.8125 59.8406 18.4984C59.2259 18.1843 58.9822 17.4312 59.2963 16.8165L63.8467 7.91175L54.9419 3.36143C54.3272 3.04729 54.0835 2.29429 54.3976 1.67954C54.7118 1.0648 55.4648 0.821107 56.0795 1.13524L66.0973 6.25436ZM3.63789 4.92714C4.24727 5.25157 4.47826 6.00856 4.15384 6.61794C3.82941 7.22731 3.07241 7.45831 2.46304 7.13388L3.63789 4.92714ZM7.68248 9.62903C7.04696 9.35937 6.75038 8.62558 7.02004 7.99007C7.28969 7.35456 8.02348 7.05797 8.65899 7.32763L7.68248 9.62903ZM12.1137 8.6688C12.7648 8.89834 13.1065 9.61223 12.877 10.2633C12.6474 10.9144 11.9336 11.2561 11.2825 11.0266L12.1137 8.6688ZM16.833 12.69C16.163 12.5237 15.7546 11.8457 15.9209 11.1757C16.0872 10.5057 16.7652 10.0973 17.4352 10.2636L16.833 12.69ZM21.0581 11.0419C21.7373 11.1657 22.1876 11.8165 22.0638 12.4957C21.9401 13.1749 21.2892 13.6252 20.6101 13.5015L21.0581 11.0419ZM26.3462 14.2772C25.6586 14.2154 25.1514 13.6079 25.2132 12.9203C25.2751 12.2327 25.8826 11.7255 26.5702 11.7873L26.3462 14.2772ZM30.2766 12.0148C30.9666 12.0379 31.5071 12.616 31.484 13.306C31.4609 13.9959 30.8828 14.5365 30.1928 14.5134L30.2766 12.0148ZM35.9628 14.4807C35.273 14.5106 34.6897 13.9757 34.6598 13.286C34.6299 12.5963 35.1648 12.0129 35.8545 11.983L35.9628 14.4807ZM39.5733 11.7346C40.2609 11.673 40.8683 12.1804 40.9299 12.868C40.9915 13.5556 40.4841 14.163 39.7965 14.2246L39.5733 11.7346ZM45.5104 13.5305C44.8279 13.6343 44.1905 13.1652 44.0867 12.4827C43.9829 11.8002 44.452 11.1628 45.1345 11.059L45.5104 13.5305ZM48.8163 10.4294C49.4946 10.3009 50.1486 10.7466 50.2771 11.4249C50.4055 12.1032 49.9598 12.7572 49.2815 12.8857L48.8163 10.4294ZM54.8922 11.6788C54.2209 11.8398 53.5462 11.4261 53.3852 10.7548C53.2242 10.0834 53.6378 9.40871 54.3092 9.2477L54.8922 11.6788ZM57.9416 8.32087C58.6081 8.14088 59.2943 8.53525 59.4743 9.20173C59.6543 9.86821 59.2599 10.5544 58.5935 10.7344L57.9416 8.32087ZM64.0881 9.13597C63.4289 9.34098 62.7283 8.97278 62.5233 8.31356C62.3183 7.65435 62.6865 6.95376 63.3457 6.74875L64.0881 9.13597ZM2.00955 4.03131C2.54923 4.33781 3.09192 4.63647 3.63789 4.92714L2.46304 7.13388C1.89662 6.83233 1.33401 6.52269 0.774959 6.2052L2.00955 4.03131ZM8.65899 7.32763C9.7933 7.80893 10.9442 8.25645 12.1137 8.6688L11.2825 11.0266C10.0629 10.5966 8.86363 10.1302 7.68248 9.62903L8.65899 7.32763ZM17.4352 10.2636C18.6213 10.558 19.8283 10.8179 21.0581 11.0419L20.6101 13.5015C19.3286 13.268 18.0702 12.9971 16.833 12.69L17.4352 10.2636ZM26.5702 11.7873C27.7825 11.8963 29.0174 11.9726 30.2766 12.0148L30.1928 14.5134C28.8876 14.4696 27.6059 14.3906 26.3462 14.2772L26.5702 11.7873ZM35.8545 11.983C37.0714 11.9303 38.3106 11.8478 39.5733 11.7346L39.7965 14.2246C38.4965 14.3411 37.219 14.4262 35.9628 14.4807L35.8545 11.983ZM45.1345 11.059C46.3408 10.8755 47.5678 10.6659 48.8163 10.4294L49.2815 12.8857C48.0042 13.1277 46.7474 13.3424 45.5104 13.5305L45.1345 11.059ZM54.3092 9.2477C55.501 8.96186 56.7116 8.65308 57.9416 8.32087L58.5935 10.7344C57.3412 11.0726 56.1077 11.3872 54.8922 11.6788L54.3092 9.2477ZM63.3457 6.74875C63.9407 6.56373 64.54 6.37355 65.1437 6.17818L65.9134 8.55672C65.3008 8.755 64.6924 8.94807 64.0881 9.13597L63.3457 6.74875Z" fill="#8C8C8C"/>
</svg>
