<svg aria-hidden="true" style="position: absolute; width: 0; height: 0; overflow: hidden;" version="1.1" xmlns="http://www.w3.org/2000/svg" xmlns:xlink="http://www.w3.org/1999/xlink">
<defs>
<symbol id="icon-apple" viewBox="0 0 29 32">
<path d="M18.959 5.209c1.083-1.392 1.856-3.248 1.624-5.105-1.624 0.077-3.558 1.083-4.718 2.398-1.005 1.16-1.934 3.094-1.702 4.873 1.856 0.232 3.635-0.773 4.795-2.166zM20.583 7.839c-2.63-0.155-4.872 1.469-6.11 1.469s-3.171-1.392-5.259-1.392c-2.707 0.077-5.182 1.547-6.574 4.022-2.784 4.873-0.773 12.065 2.011 16.010 1.315 1.934 2.939 4.099 5.027 4.022 2.011-0.078 2.784-1.315 5.182-1.315s3.094 1.315 5.259 1.237c2.166-0.077 3.558-1.933 4.872-3.944 1.547-2.243 2.166-4.408 2.166-4.486-0.077-0.077-4.254-1.624-4.254-6.419-0.077-4.022 3.248-5.955 3.403-6.033-1.779-2.784-4.718-3.094-5.723-3.171z"></path>
</symbol>
<symbol id="icon-boy" viewBox="0 0 20 32">
<path fill="#fff" style="fill: var(--color1, #fff)" d="M16.055 22.41h-0.794l-2.026-1.112v-0.959c1.993-1.031 3.384-2.891 3.865-5.015 1.427-0.173 2.537-1.402 2.537-2.889 0-0.789-0.313-1.506-0.82-2.031 0.075-0.093 0.12-0.211 0.12-0.339v-4.209c0-2.329-1.803-4.266-4.073-4.446-0.632-0.855-1.641-1.41-2.776-1.41h-5.628c-3.156 0-5.724 2.593-5.724 5.781v4.284c0 0.127 0.044 0.244 0.117 0.336-0.507 0.524-0.817 1.242-0.817 2.034 0 1.487 1.11 2.717 2.537 2.889 0.48 2.12 1.869 3.982 3.865 5.015v0.959l-2.026 1.112h-0.773c-2.006 0-3.638 1.648-3.638 3.674v5.379c0 0.297 0.238 0.537 0.532 0.537h2.182c0.294 0 0.532-0.241 0.532-0.537s-0.238-0.537-0.532-0.537h-1.65v-4.841c0-1.433 1.155-2.599 2.574-2.599h0.731l3.277 2.467c0.113 0.085 0.263 0.125 0.411 0.098l0.296 1.171-0.721 3.705h-2.435c-0.294 0-0.532 0.241-0.532 0.537s0.238 0.537 0.532 0.537h13.963c0.294 0 0.532-0.241 0.532-0.537v-5.379c0-2.026-1.632-3.674-3.638-3.674v0zM14.141 23.019l-2.375 1.788c-0.283-0.299-0.92-0.97-1.107-1.167l2.071-1.395 1.41 0.774zM10.716 25.254l-0.357 1.414h-1.047l-0.357-1.414 0.881-0.929 0.881 0.929zM7.501 21.33v-0.539c0.757 0.253 1.566 0.378 2.335 0.378 0.779 0 1.586-0.128 2.335-0.378v0.539l-2.335 1.572-2.335-1.572zM16.127 13.817c0 0.053-0.043 0.097-0.096 0.097h-4.234c-0.053 0-0.096-0.043-0.096-0.097v-3.118c0-0.053 0.043-0.097 0.096-0.097h4.234c0.053 0 0.096 0.043 0.096 0.097v3.118zM18.572 12.435c0 0.888-0.628 1.63-1.458 1.799 0.049-0.13 0.077-0.27 0.077-0.417v-3.118c0-0.015-0.002-0.031-0.002-0.046 0.793 0.197 1.383 0.921 1.383 1.782zM17.872 5.855v3.672h-0.777c-0.269-1.175-0.867-2.334-1.556-3.142 0.001-0.007 0.001-0.014 0.001-0.021 0.012-0.215 0.008-0.127 0.008-2.869 0-0.268-0.035-0.589-0.114-0.89-0.001-0.002-0.001-0.005-0.002-0.007 1.404 0.405 2.439 1.719 2.439 3.257zM15.231 7.775c0.337 0.536 0.597 1.122 0.767 1.752h-2.013c0.544-0.468 0.976-1.066 1.247-1.752zM1.099 12.435c0-0.863 0.584-1.587 1.383-1.782-0.001 0.015-0.002 0.031-0.002 0.046v3.118c0 0.147 0.028 0.287 0.077 0.417-0.831-0.169-1.458-0.911-1.458-1.799v0zM1.799 9.527v-3.747c0-2.595 2.090-4.706 4.66-4.706h5.628c1.311 0 2.397 1.074 2.397 2.421v2.608c0 1.873-1.507 3.423-3.39 3.423-0.848 0-8.827 0-9.295 0v0zM9.029 10.602h1.612c-0.007 0.082-0.005-0.013-0.005 1.119h-1.602c0-1.132 0.002-1.037-0.005-1.119zM3.544 13.817v-3.118c0-0.053 0.043-0.097 0.096-0.097h4.234c0.053 0 0.096 0.043 0.096 0.097v3.118c0 0.053-0.043 0.097-0.096 0.097h-4.234c-0.053 0-0.096-0.043-0.096-0.097v0zM3.588 14.986c0.017 0.001 0.035 0.003 0.052 0.003h4.234c0.64 0 1.16-0.526 1.16-1.171v-1.022h1.602v1.022c0 0.646 0.52 1.171 1.16 1.171h4.234c0.018 0 0.035-0.002 0.052-0.003-0.634 3.042-3.281 5.108-6.248 5.108-2.979 0-5.616-2.076-6.248-5.108zM7.905 24.806l-2.375-1.788 1.41-0.774 2.071 1.395-1.107 1.167zM8.717 30.925l0.619-3.183h0.998l0.619 3.183h-2.236zM18.628 30.925h-6.59l-0.721-3.704 0.296-1.171c0.15 0.027 0.3-0.014 0.411-0.098l3.277-2.467h0.752c1.419 0 2.574 1.166 2.574 2.599v4.842h0z"></path>
</symbol>
<symbol id="icon-brackets" viewBox="0 0 55 32">
<path fill="#fff" style="fill: var(--color1, #fff)" d="M16.33 24.395l-15.488-6.784v-4.416l15.488-6.784v4.512l-10.816 4.448 10.816 4.448v4.576z"></path>
<path fill="#fff" style="fill: var(--color1, #fff)" d="M18.239 30.763l14.176-29.632h4.128l-14.176 29.632h-4.128z"></path>
<path fill="#fff" style="fill: var(--color1, #fff)" d="M38.92 24.395v-4.512l10.816-4.448-10.816-4.448v-4.576l15.488 6.784v4.416l-15.488 6.784z"></path>
</symbol>
<symbol id="icon-children" viewBox="0 0 32 32">
<path fill="#fff" style="fill: var(--color1, #fff)" d="M23.053 18.747c0.848 0 1.538-0.69 1.538-1.538 0-0.259-0.21-0.469-0.469-0.469s-0.469 0.21-0.469 0.469c0 0.331-0.269 0.601-0.601 0.601s-0.601-0.269-0.601-0.601c0-0.259-0.21-0.469-0.469-0.469s-0.469 0.21-0.469 0.469c0 0.848 0.69 1.538 1.538 1.538z"></path>
<path fill="#fff" style="fill: var(--color1, #fff)" d="M25.511 16.118c0.259 0 0.469-0.21 0.469-0.469v-0.49c0.231-0.029 0.411-0.226 0.411-0.465 0-0.259-0.21-0.469-0.469-0.469h-0.411c-0.259 0-0.469 0.21-0.469 0.469v0.955c0 0.259 0.21 0.469 0.469 0.469z"></path>
<path fill="#fff" style="fill: var(--color1, #fff)" d="M20.127 15.159v0.49c0 0.259 0.21 0.469 0.469 0.469s0.469-0.21 0.469-0.469v-0.955c0-0.259-0.21-0.469-0.469-0.469h-0.411c-0.259 0-0.469 0.21-0.469 0.469 0 0.239 0.179 0.437 0.411 0.465z"></path>
<path fill="#fff" style="fill: var(--color1, #fff)" d="M30.059 15.733c0.133-0.282 0.208-0.596 0.208-0.927 0-0.552-0.207-1.056-0.546-1.44 0.054-0.076 0.086-0.169 0.086-0.27 0-1.385 0.069-2.206-0.347-3.396-0.086-0.244-0.353-0.373-0.597-0.288s-0.373 0.353-0.288 0.597c0.34 0.973 0.295 1.648 0.295 2.618-0.598 0-2.209 0-2.888 0-1.356 0-2.46-1.103-2.46-2.46 0-0.259-0.21-0.469-0.469-0.469s-0.469 0.21-0.469 0.469c0 1.356-1.103 2.46-2.46 2.46h-2.888v-0.873c0-2.913 2.37-5.283 5.283-5.283 0.035 0 0.064 0.029 0.064 0.064 0 0.259 0.21 0.469 0.469 0.469s0.469-0.21 0.469-0.469c0-0.035 0.029-0.064 0.064-0.064 1.527 0 2.979 0.661 3.984 1.813 0.17 0.195 0.466 0.215 0.661 0.045s0.215-0.466 0.045-0.661c-1.183-1.356-2.892-2.134-4.69-2.134-0.196 0-0.379 0.056-0.533 0.154-0.154-0.097-0.337-0.154-0.533-0.154-3.43 0-6.221 2.791-6.221 6.221v1.342c0 0.101 0.032 0.193 0.086 0.27-0.157 0.178-0.286 0.382-0.379 0.605-0.056-0.691-0.405-1.298-0.926-1.695v-1.786c0-3.516-2.86-6.376-6.376-6.376-0.873 0-0.523-0.015-1.731 0.079-1.666 0.13-3.156 1.021-4.059 2.408l-1.412-0.451c-0.292-0.094-0.596 0.116-0.611 0.424-0.007 0.141-0.148 3.28 0.424 5.467-0.78 0.391-1.317 1.198-1.317 2.128 0 1.207 0.903 2.207 2.070 2.36 0.294 1.26 0.987 2.403 1.979 3.251 0.26 0.222 0.538 0.42 0.828 0.594h-0.986c-1.621 0-2.939 1.319-2.939 2.939v4.108c0 0.259 0.21 0.469 0.469 0.469h0.779c0.259 0 0.469-0.21 0.469-0.469s-0.21-0.469-0.469-0.469h-0.31v-3.639c0-1.104 0.898-2.002 2.002-2.002h1.364c0.233 1.382 1.483 2.421 2.943 2.327 1.322-0.085 2.369-1.080 2.58-2.327h1.364c1.104 0 2.002 0.898 2.002 2.002v3.639h-9.756c-0.259 0-0.469 0.21-0.469 0.469s0.21 0.469 0.469 0.469h10.225c0.259 0 0.469-0.21 0.469-0.469v-4.108c0-0.39-0.077-0.763-0.216-1.104h0.753c0.472 0 0.921-0.094 1.332-0.264-0.289 0.447-0.458 0.979-0.458 1.55v3.925c0 0.259 0.21 0.469 0.469 0.469h12.216c0.259 0 0.469-0.21 0.469-0.469v-3.925c0-0.564-0.165-1.090-0.447-1.534 0.4 0.159 0.835 0.247 1.29 0.247h1.043c0.259 0 0.469-0.21 0.469-0.469v-2.871c0-1.335-0.774-2.55-1.941-3.135zM20.125 13.565c1.246 0 2.337-0.674 2.929-1.677 0.591 1.003 1.683 1.677 2.928 1.677h2.107c0.684 0 1.241 0.557 1.241 1.241 0 0.335-0.134 0.638-0.35 0.862-0.247 0.255-0.589 0.392-0.941 0.378-0.237-0.011-0.443 0.158-0.482 0.391-0.357 2.132-2.201 3.807-4.503 3.807-1.627 0-3.146-0.86-3.964-2.29-0.008-0.019-0.016-0.038-0.027-0.056-0.191-0.342-0.336-0.704-0.432-1.079-0.002-0.008-0.004-0.015-0.005-0.023-0.027-0.106-0.052-0.218-0.076-0.359-0.039-0.233-0.246-0.402-0.482-0.391-0.702 0.028-1.291-0.537-1.291-1.24 0-0.684 0.557-1.241 1.241-1.241 0.017 0 0.034 0.001 0.051 0.001 0.020 0.001 0.040 0 0.059-0.001l1.996 0zM23.061 23.153c-0.892 0-1.618-0.726-1.618-1.618v-0.594c0.532 0.163 1.088 0.24 1.61 0.24 0.539 0 1.101-0.082 1.625-0.244v0.599c0 0.864-0.681 1.572-1.534 1.615-0.028 0.001-0.055 0.002-0.083 0.002zM19.356 20.63c-0 0-0 0-0.001 0-0.321 0-0.63 0.054-0.919 0.152 0.29-0.392 0.5-0.846 0.606-1.338 0.138 0.146 0.283 0.286 0.437 0.418 0.317 0.271 0.662 0.502 1.027 0.693v0.074h-1.15zM25.616 20.548c0.531-0.279 1.016-0.643 1.448-1.103 0.105 0.486 0.312 0.935 0.596 1.323-0.535-0.173-0.814-0.138-2.044-0.138v-0.082h-0zM1.813 7.232l1.169 0.374c0.213 0.068 0.445-0.024 0.553-0.22 0.718-1.299 2.031-2.144 3.511-2.259 1.178-0.092 0.821-0.077 1.658-0.077 2.999 0 5.439 2.44 5.439 5.439v1.354c-0.41-0.088-0.28-0.053-6.709-0.053-0.467 0-0.915-0.104-1.318-0.291-0.887-0.413-1.56-1.23-1.758-2.238-0.075-0.385-0.549-0.501-0.802-0.23-0.676 0.723-1.149 1.579-1.406 2.468-0.322-1.458-0.348-3.319-0.337-4.266zM2.92 16c-0.038-0.227-0.234-0.391-0.462-0.391-0.006 0-0.013 0-0.019 0-0.020 0.001-0.039 0.002-0.059 0.002-0.795 0-1.442-0.647-1.442-1.442 0-0.782 0.623-1.414 1.39-1.441 0.002-0 0.004-0 0.006-0 0.035-0.001 0.070-0.001 0.104 0 0.001 0 0.002 0 0.002 0s0.003-0 0.004-0c0.234 0.007 0.437-0.16 0.476-0.391 0.106-0.633 0.328-1.235 0.654-1.78 0.047-0.078 0.095-0.155 0.146-0.23 0.645 1.433 2.088 2.402 3.715 2.402h6.269c0.228 0.010 0.465 0.079 0.669 0.201 0.004 0.002 0.008 0.004 0.011 0.006 0.418 0.253 0.694 0.71 0.694 1.234 0 0.795-0.647 1.442-1.442 1.442-0.020 0-0.039-0.001-0.059-0.002-0.236-0.008-0.442 0.158-0.481 0.391-0.425 2.54-2.611 4.301-5.088 4.301-2.496 0-4.666-1.779-5.088-4.301zM7.922 22.704c-0.917-0.046-1.665-0.759-1.759-1.669-0.001-0.007-0.001-0.014-0.002-0.021-0.002-0.020-0.003-0.041-0.005-0.061 0.617 0.197 1.261 0.286 1.851 0.286 0.601 0 1.25-0.092 1.869-0.292-0.057 1.021-0.932 1.808-1.954 1.757zM12.141 20.372h-1.004c0.291-0.174 0.568-0.372 0.828-0.594 0.992-0.848 1.686-1.991 1.979-3.251 0.871-0.114 1.596-0.701 1.907-1.494 0.026 0.248 0.093 0.483 0.196 0.699-1.167 0.585-1.941 1.8-1.941 3.135v2.26c-0.521-0.469-1.21-0.756-1.965-0.756zM15.044 21.27v-2.402c0-1.043 0.644-1.986 1.595-2.376 0.311 0.254 0.686 0.414 1.061 0.469 0.108 0.452 0.279 0.894 0.484 1.283v0.459c0 1.416-1.152 2.567-2.567 2.567l-0.574 0zM28.708 26.951h-11.278v-3.456c0-1.062 0.864-1.926 1.927-1.926h1.15c0.017 1.384 1.149 2.523 2.555 2.523 1.39 0 2.537-1.121 2.555-2.523h1.166c1.062 0 1.926 0.864 1.926 1.926v3.456h0zM31.062 21.27h-0.574c-1.416 0-2.567-1.152-2.567-2.567v-0.459c0.209-0.395 0.378-0.837 0.484-1.283 0.352-0.052 0.707-0.195 1.016-0.435 0.015-0.012 0.030-0.022 0.045-0.034 0.951 0.39 1.595 1.333 1.595 2.376v2.402z"></path>
<path fill="#fff" style="fill: var(--color1, #fff)" d="M8.007 18.526c0.918 0 1.664-0.746 1.664-1.664 0-0.259-0.21-0.469-0.469-0.469s-0.469 0.21-0.469 0.469c0 0.401-0.326 0.726-0.726 0.726s-0.726-0.326-0.726-0.726c0-0.259-0.21-0.469-0.469-0.469s-0.469 0.21-0.469 0.469c0 0.917 0.747 1.664 1.664 1.664z"></path>
<path fill="#fff" style="fill: var(--color1, #fff)" d="M5.261 13.598c-0.259 0-0.469 0.21-0.469 0.469v1.036c0 0.259 0.21 0.469 0.469 0.469s0.469-0.21 0.469-0.469v-1.036c0-0.259-0.21-0.469-0.469-0.469z"></path>
<path fill="#fff" style="fill: var(--color1, #fff)" d="M10.755 15.572c0.259 0 0.469-0.21 0.469-0.469v-1.036c0-0.259-0.21-0.469-0.469-0.469s-0.469 0.21-0.469 0.469v1.036c0 0.259 0.21 0.469 0.469 0.469z"></path>
</symbol>
<symbol id="icon-facebook" viewBox="0 0 31 32">
<path fill="#fff" style="fill: var(--color1, #fff)" opacity="0.9" d="M28.444 16.341c0-7.078-5.792-12.823-12.929-12.823s-12.929 5.745-12.929 12.823c0 6.206 4.448 11.374 10.343 12.566v-8.719h-2.586v-3.847h2.586v-3.206c0-2.475 2.030-4.488 4.525-4.488h3.232v3.847h-2.586c-0.711 0-1.293 0.577-1.293 1.282v2.565h3.879v3.847h-3.879v8.912c6.529-0.641 11.636-6.104 11.636-12.758z"></path>
</symbol>
<symbol id="icon-free" viewBox="0 0 32 32">
<path fill="#aa43a2" style="fill: var(--color2, #aa43a2)" d="M15.398 13.818c0.161 0 0.313-0.061 0.426-0.176 0.235-0.235 0.235-0.616 0-0.852l-0.426-0.426-0.852 0.852 0.426 0.425c0.114 0.114 0.265 0.177 0.426 0.177z"></path>
<path fill="#aa43a2" style="fill: var(--color2, #aa43a2)" d="M31.912 14.907c-0.129-0.999-0.415-1.904-0.835-2.725-0.004-0.008-0.009-0.015-0.013-0.023-0.951-1.843-2.493-3.312-4.005-4.752-0.419-0.399-0.841-0.801-1.252-1.212-0.415-0.413-0.817-0.837-1.219-1.259-1.523-1.599-3.091-3.217-5.084-4.147-0.027-0.009-0.045-0.032-0.073-0.037l-0.033-0.007c-0.724-0.325-1.507-0.556-2.364-0.661-0.313-0.049-0.649-0.084-1.033-0.084-8.823 0-16 7.177-16 16s7.177 16 16 16c8.823 0 16-7.177 16-16 0-0.407-0.033-0.767-0.088-1.093zM16 30.667c-8.087 0-14.667-6.58-14.667-14.667 0-7.905 6.292-14.351 14.128-14.637 0.121-0.051 0.255-0.076 0.392-0.045l0.087 0.019 0.175 0.039 1.739 0.389c0.037 0.028 0.056 0.073 0.089 0.104 0.021 0.017 0.051 0.020 0.071 0.039 0.083 0.084 0.143 0.187 0.207 0.284 0.020 0.032 0.047 0.056 0.065 0.091 0.281 0.491 0.397 1.164 0.557 2.149 0.289 1.783 0.649 4.001 2.687 6.039s4.256 2.397 6.039 2.687c0.587 0.096 1.077 0.18 1.492 0.297 0.204 0.057 0.385 0.127 0.549 0.207 0.021 0.011 0.040 0.023 0.061 0.033 0.144 0.076 0.272 0.169 0.384 0.275 0.017 0.016 0.033 0.033 0.049 0.049 0.109 0.113 0.203 0.249 0.279 0.404 0.008 0.017 0.017 0.032 0.025 0.049 0.168 0.369 0.26 0.849 0.26 1.527-0.001 8.089-6.581 14.669-14.668 14.669z"></path>
<path fill="#aa43a2" style="fill: var(--color2, #aa43a2)" d="M27.822 14.818c-1.885-0.307-4.467-0.726-6.83-3.089s-2.781-4.947-3.088-6.832c-0.128-0.79-0.226-1.396-0.375-1.687l-1.345-0.302c-7.335 0.097-13.274 6.088-13.274 13.449 0 7.422 6.036 13.46 13.455 13.46s13.454-6.038 13.454-13.46c0-0.252-0.027-0.499-0.044-0.748-0.108-0.486-0.499-0.556-1.952-0.791zM10.403 11.124l-0.476-0.476-1.428 1.428c-0.132 0.132-0.304 0.197-0.476 0.197s-0.344-0.066-0.476-0.197c-0.262-0.262-0.262-0.689 0-0.952l3.805-3.806c0.262-0.262 0.689-0.262 0.951 0l1.902 1.903c0.262 0.262 0.262 0.689 0 0.952s-0.689 0.262-0.951 0l-1.428-1.428-0.951 0.952 0.476 0.477c0.262 0.262 0.262 0.689 0 0.952-0.132 0.132-0.304 0.197-0.476 0.197s-0.34-0.066-0.472-0.197zM13.733 17.983c-0.371 0-0.673-0.302-0.673-0.673v-2.182l-0.755 0.755c-0.262 0.262-0.689 0.262-0.951 0s-0.262-0.689 0-0.952l1.889-1.89c0.009-0.009 0.018-0.018 0.027-0.027l1.89-1.891c0.262-0.262 0.689-0.262 0.951 0l0.951 0.952c0.787 0.787 0.787 2.069 0 2.856-0.381 0.381-0.888 0.591-1.428 0.591-0.452 0-0.88-0.147-1.231-0.419v2.206h0.001c0 0.372-0.301 0.673-0.673 0.673zM18.016 20.641c0.262 0.262 0.262 0.689 0 0.952-0.132 0.132-0.304 0.197-0.476 0.197s-0.344-0.066-0.476-0.197l-1.902-1.905c-0.262-0.262-0.262-0.689 0-0.952l3.805-3.806c0.262-0.262 0.689-0.262 0.951 0l1.902 1.903c0.262 0.262 0.262 0.689 0 0.952s-0.689 0.262-0.951 0l-1.426-1.427-0.951 0.952 0.476 0.476c0.262 0.262 0.262 0.689 0 0.952-0.132 0.132-0.304 0.197-0.476 0.197s-0.344-0.066-0.476-0.197l-0.476-0.476-0.951 0.952 1.429 1.428zM25.626 21.593c-0.262 0.262-0.689 0.262-0.951 0l-1.428-1.428-0.951 0.952 0.476 0.476c0.262 0.262 0.262 0.689 0 0.952-0.132 0.132-0.304 0.197-0.476 0.197s-0.344-0.066-0.476-0.197l-0.476-0.476-0.951 0.952 1.428 1.428c0.262 0.262 0.262 0.689 0 0.952-0.132 0.132-0.304 0.197-0.476 0.197s-0.344-0.066-0.476-0.197l-1.902-1.903c-0.262-0.262-0.262-0.689 0-0.952l3.805-3.808c0.126-0.127 0.297-0.197 0.476-0.197s0.35 0.071 0.476 0.197l1.902 1.905c0.264 0.262 0.264 0.689 0.001 0.952z"></path>
</symbol>
<symbol id="icon-google" viewBox="0 0 32 32">
<path fill="#167ee6" style="fill: var(--color3, #167ee6)" d="M30.791 13.219l-13.052-0.001c-0.576 0-1.044 0.467-1.044 1.044v4.17c0 0.576 0.467 1.043 1.043 1.043h7.35c-0.805 2.089-2.307 3.838-4.224 4.95l3.134 5.426c5.028-2.908 8-8.010 8-13.721 0-0.813-0.060-1.395-0.18-2.049-0.091-0.497-0.523-0.862-1.029-0.862z"></path>
<path fill="#12b347" style="fill: var(--color4, #12b347)" d="M16 25.738c-3.597 0-6.737-1.965-8.424-4.874l-5.425 3.127c2.761 4.785 7.933 8.007 13.849 8.007 2.902 0 5.641-0.781 8-2.143v-0.007l-3.134-5.426c-1.434 0.832-3.093 1.315-4.866 1.315z"></path>
<path fill="#0f993e" style="fill: var(--color5, #0f993e)" d="M24 29.855v-0.007l-3.134-5.426c-1.434 0.831-3.093 1.315-4.866 1.315v6.261c2.902 0 5.641-0.781 8-2.143z"></path>
<path fill="#ffd500" style="fill: var(--color6, #ffd500)" d="M6.261 15.998c0-1.773 0.484-3.432 1.315-4.865l-5.425-3.127c-1.369 2.352-2.151 5.083-2.151 7.993s0.781 5.641 2.151 7.993l5.425-3.127c-0.831-1.434-1.315-3.092-1.315-4.865z"></path>
<path fill="#ff4b26" style="fill: var(--color7, #ff4b26)" d="M16 6.261c2.346 0 4.5 0.833 6.183 2.22 0.415 0.342 1.019 0.317 1.399-0.063l2.954-2.954c0.431-0.431 0.401-1.138-0.060-1.538-2.82-2.446-6.488-3.926-10.476-3.926-5.916 0-11.088 3.222-13.849 8.007l5.425 3.127c1.687-2.908 4.827-4.874 8.424-4.874z"></path>
<path fill="#d93f21" style="fill: var(--color8, #d93f21)" d="M22.183 8.481c0.415 0.342 1.019 0.317 1.399-0.063l2.954-2.954c0.431-0.431 0.401-1.138-0.060-1.538-2.82-2.446-6.488-3.926-10.476-3.926v6.261c2.346 0 4.5 0.833 6.183 2.22z"></path>
</symbol>
<symbol id="icon-hot" viewBox="0 0 24 32">
<path fill="#aa43a2" style="fill: var(--color2, #aa43a2)" d="M9.683 0.265c-0.18 0.18-0.18 0.050 0.056 1.547 0.186 1.199 0.205 3.752 0.031 4.373-0.218 0.77-0.51 1.124-0.926 1.124-0.273 0-0.733-0.18-1.206-0.472-0.69-0.422-0.758-0.398-1.405 0.46-1.131 1.497-1.914 3.156-2.268 4.796-0.075 0.373-0.112 0.795-0.112 1.46 0 1 0.093 1.553 0.379 2.323 0.081 0.217 0.137 0.41 0.118 0.429s-0.186 0.044-0.373 0.062c-0.28 0.025-0.404 0-0.684-0.137-0.398-0.199-0.864-0.696-1.15-1.224-0.205-0.385-0.329-0.491-0.578-0.491-0.298 0-0.41 0.174-0.609 0.932-0.597 2.33-0.914 4.802-0.845 6.523 0.205 4.957 3.045 8.349 7.955 9.505 2.051 0.485 4.835 0.559 6.992 0.186 3.337-0.572 5.848-2.087 7.358-4.448 0.534-0.832 1.063-2.162 1.286-3.23 0.447-2.187 0.273-5.467-0.466-8.529-0.286-1.211-0.758-2.609-0.932-2.783-0.298-0.298-0.833-0.068-0.833 0.348 0 0.298-0.23 0.832-0.479 1.124-0.199 0.23-0.715 0.621-0.82 0.621-0.025 0-0.025-0.534-0.019-1.193 0.025-1.305-0.037-2-0.273-3.081-0.951-4.311-3.953-7.703-8.788-9.964-0.497-0.23-0.982-0.422-1.075-0.422-0.106 0-0.236 0.062-0.336 0.162zM10.479 17.752c0.416 0.224 0.609 0.422 0.851 0.888 0.137 0.267 0.162 0.398 0.162 0.845 0.006 0.485-0.012 0.559-0.205 0.919-0.236 0.435-0.435 0.621-0.901 0.87-0.267 0.137-0.398 0.162-0.845 0.162s-0.578-0.025-0.845-0.162c-0.466-0.248-0.665-0.435-0.901-0.87-0.193-0.36-0.211-0.435-0.205-0.919 0-0.578 0.112-0.888 0.454-1.311 0.186-0.224 0.702-0.54 1.025-0.621 0.392-0.106 1.007-0.012 1.411 0.199zM16.346 17.653c0.106 0.099 0.155 0.217 0.155 0.354 0 0.186-0.342 0.541-4.12 4.317s-4.133 4.119-4.319 4.119c-0.273 0-0.51-0.236-0.51-0.509 0-0.186 0.342-0.541 4.12-4.317s4.133-4.119 4.319-4.119c0.137 0 0.255 0.050 0.354 0.155zM15.451 22.722c0.416 0.224 0.609 0.422 0.851 0.888 0.137 0.267 0.162 0.398 0.162 0.845 0.006 0.485-0.012 0.559-0.205 0.919-0.236 0.435-0.435 0.621-0.901 0.87-0.267 0.137-0.398 0.162-0.845 0.162s-0.578-0.025-0.845-0.162c-0.466-0.249-0.665-0.435-0.901-0.87-0.193-0.36-0.211-0.435-0.205-0.919 0-0.578 0.112-0.888 0.454-1.311 0.186-0.224 0.702-0.541 1.025-0.621 0.392-0.106 1.007-0.012 1.411 0.199z"></path>
<path fill="#aa43a2" style="fill: var(--color2, #aa43a2)" d="M9.136 18.578c-0.628 0.273-0.777 1.106-0.286 1.596 0.404 0.404 0.976 0.404 1.38 0 0.771-0.77-0.093-2.031-1.094-1.596z"></path>
<path fill="#aa43a2" style="fill: var(--color2, #aa43a2)" d="M14.108 23.548c-0.628 0.273-0.777 1.106-0.286 1.597 0.404 0.404 0.976 0.404 1.38 0 0.771-0.77-0.093-2.031-1.094-1.597z"></path>
</symbol>
<symbol id="icon-instagram" viewBox="0 0 31 32">
<path fill="#fff" style="fill: var(--color1, #fff)" opacity="0.9" d="M20.242 3.839h-9.455c-4.351 0-7.879 3.499-7.879 7.814v9.377c0 4.315 3.528 7.814 7.879 7.814h9.455c4.351 0 7.879-3.499 7.879-7.814v-9.377c0-4.315-3.528-7.814-7.879-7.814zM25.758 21.029c0 3.016-2.474 5.47-5.515 5.47h-9.455c-3.041 0-5.515-2.454-5.515-5.47v-9.377c0-3.016 2.474-5.47 5.515-5.47h9.455c3.041 0 5.515 2.454 5.515 5.47v9.377z"></path>
<path fill="#fff" style="fill: var(--color1, #fff)" opacity="0.9" d="M15.515 10.090c-3.481 0-6.303 2.799-6.303 6.251s2.822 6.251 6.303 6.251c3.481 0 6.303-2.799 6.303-6.251s-2.822-6.251-6.303-6.251zM15.515 20.248c-2.171 0-3.939-1.753-3.939-3.907 0-2.155 1.768-3.907 3.939-3.907s3.939 1.752 3.939 3.907c0 2.154-1.768 3.907-3.939 3.907z"></path>
<path fill="#fff" style="fill: var(--color1, #fff)" opacity="0.9" d="M22.291 10.454c0.464 0 0.84-0.373 0.84-0.833s-0.376-0.833-0.84-0.833c-0.464 0-0.84 0.373-0.84 0.833s0.376 0.833 0.84 0.833z"></path>
</symbol>
<symbol id="icon-location" viewBox="0 0 32 32">
<path fill="#aa43a2" style="fill: var(--color2, #aa43a2)" d="M16 2.572c6.154 0 11.143 4.989 11.143 11.143 0 4.709-3.308 9.84-9.84 15.449-0.363 0.312-0.826 0.483-1.305 0.483s-0.942-0.173-1.304-0.485l-0.432-0.375c-6.242-5.463-9.405-10.469-9.405-15.072 0-6.154 4.989-11.143 11.143-11.143zM16 4.286c-2.501 0-4.899 0.993-6.667 2.762s-2.762 4.166-2.762 6.667c0 4.002 2.912 8.614 8.816 13.779l0.426 0.369c0.052 0.044 0.118 0.069 0.186 0.069s0.134-0.025 0.186-0.069c6.19-5.317 9.242-10.052 9.242-14.149 0-1.238-0.244-2.464-0.718-3.608s-1.168-2.183-2.044-3.059-1.915-1.57-3.059-2.044c-1.144-0.474-2.37-0.718-3.608-0.718zM16 9.429c1.137 0 2.227 0.452 3.030 1.255s1.255 1.894 1.255 3.030c0 1.137-0.452 2.227-1.255 3.030s-1.894 1.255-3.030 1.255c-1.137 0-2.227-0.452-3.030-1.255s-1.255-1.894-1.255-3.030c0-1.137 0.452-2.227 1.255-3.030s1.894-1.255 3.030-1.255zM16 11.143c-0.682 0-1.336 0.271-1.818 0.753s-0.753 1.136-0.753 1.818c0 0.682 0.271 1.336 0.753 1.818s1.136 0.753 1.818 0.753c0.682 0 1.336-0.271 1.818-0.753s0.753-1.136 0.753-1.818-0.271-1.336-0.753-1.818c-0.482-0.482-1.136-0.753-1.818-0.753z"></path>
</symbol>
<symbol id="icon-pencil" viewBox="0 0 32 32">
<path fill="#fff" style="fill: var(--color1, #fff)" d="M0.162 0.144c-0.206 0.206-0.219 0.494-0.019 0.694 0.138 0.137 0.194 0.144 1.606 0.188 5.044 0.144 9.181 0.637 11.656 1.381 1.525 0.456 2.625 1.138 2.781 1.725 0.194 0.719-0.606 1.681-2.438 2.931-2.537 1.731-3.5 2.831-3.5 4.006 0 1.313 1.338 2.231 4.45 3.037l0.919 0.244-6.588 6.575-1.188 0.069c-2.219 0.131-3.781 0.469-4.994 1.081-1.35 0.681-2.275 1.781-2.644 3.137-0.138 0.512-0.131 1.5 0.006 2.069 0.238 0.944 0.969 2.156 1.744 2.894 0.406 0.381 0.638 0.425 0.888 0.169 0.281-0.275 0.219-0.469-0.344-1.063-0.506-0.544-0.975-1.256-1.181-1.813-0.55-1.456-0.063-3.075 1.206-4.019 1.038-0.769 2.825-1.294 4.819-1.425l0.625-0.038-1.494 1.494-1.487 1.5-0.744 3.213c-0.406 1.769-0.744 3.275-0.744 3.356 0 0.175 0.263 0.45 0.431 0.45 0.219 0 6.388-1.438 6.562-1.531 0.088-0.044 1.963-1.887 4.162-4.094l4-4.006 1.281 0.044c1.363 0.044 3.012-0.038 4.094-0.2 1.775-0.262 3.050-0.819 3.819-1.669 1.275-1.4 1.169-2.944-0.281-4.006-0.337-0.244-1.269-0.725-1.738-0.887l-0.331-0.119 2.994-3c1.731-1.738 3.056-3.119 3.15-3.281 0.325-0.569 0.431-1.306 0.269-1.906-0.163-0.619-0.337-0.85-1.625-2.138-1.106-1.112-1.306-1.288-1.694-1.469-0.406-0.194-0.487-0.206-1.063-0.206-0.587 0-0.656 0.013-1.063 0.212-0.413 0.194-0.744 0.512-5.219 4.981l-4.781 4.775-0.781-0.181c-2.469-0.569-3.9-1.181-4.306-1.844-0.469-0.756 0.394-1.838 2.775-3.475 1.469-1.006 2.106-1.569 2.581-2.269 0.75-1.087 0.619-2.138-0.375-3.006-1.731-1.519-6.944-2.487-14.525-2.7l-1.512-0.044-0.163 0.163zM28.156 4.65c0.231 0.106 0.619 0.456 1.475 1.325 1.306 1.325 1.413 1.494 1.35 2.112-0.050 0.481-0.169 0.675-0.881 1.4l-0.625 0.644-4.1-4.1 0.613-0.612c0.756-0.769 0.994-0.9 1.575-0.912 0.175-0.006 0.4 0.050 0.594 0.144zM27.906 11.687l-0.844 0.844-4.094-4.094 1.687-1.688 4.094 4.094-0.844 0.844zM24.312 11.219l2.031 2.031-7.625 7.625c-4.194 4.194-7.644 7.625-7.663 7.625-0.025 0-0.106-0.344-0.187-0.769-0.206-1.056-0.187-1.044-1.244-1.044h-0.813v-0.812c0-1.056 0.012-1.044-1.050-1.244-0.419-0.081-0.763-0.163-0.763-0.188 0-0.044 15.206-15.256 15.25-15.256 0.019 0 0.944 0.913 2.063 2.031zM25.656 16.669c1.175 0.475 1.794 0.938 2.006 1.488 0.131 0.35 0.094 0.675-0.131 1.137-0.475 0.969-1.725 1.637-3.606 1.925-0.8 0.119-3.538 0.256-3.95 0.194l-0.306-0.050 2.525-2.525c2.056-2.056 2.544-2.519 2.65-2.487 0.069 0.025 0.438 0.163 0.812 0.319zM7.050 25.506l0.763 0.144v0.825c0 0.787 0.006 0.837 0.15 1.006 0.15 0.175 0.163 0.175 1.012 0.206l0.863 0.031 0.169 0.844c0.162 0.788 0.162 0.85 0.069 0.95-0.063 0.056-0.512 0.194-1.044 0.319l-0.938 0.219-1.325-1.319c-0.725-0.719-1.313-1.344-1.3-1.381s0.112-0.463 0.219-0.944c0.206-0.881 0.313-1.119 0.494-1.069 0.056 0.019 0.444 0.094 0.869 0.169zM6.769 30.325c-0.175 0.075-2.031 0.494-2.063 0.462-0.025-0.019 0.375-1.863 0.456-2.094 0.019-0.063 0.313 0.187 0.875 0.75 0.688 0.688 0.819 0.844 0.731 0.881z"></path>
</symbol>
<symbol id="icon-people_plus" viewBox="0 0 32 32">
<path fill="#aa43a2" style="fill: var(--color2, #aa43a2)" d="M30.090 18.6c-1.090-1.1-2.531-1.77-4.061-1.912 1.32-1.188 2.154-2.903 2.154-4.819 0-3.584-2.904-6.488-6.489-6.488-3.424 0-6.227 2.652-6.47 6.013 3.046 1.318 5.183 4.353 5.183 7.877 0 1.287-0.293 2.545-0.837 3.686 0.784 0.41 1.507 0.94 2.137 1.576 1.616 1.627 2.534 3.877 2.517 6.17l-0.001 0.047-0.001 0.040-0.057 1.085h7.772l0.064-8.596c0.013-1.753-0.673-3.435-1.91-4.679z"></path>
<path fill="#aa43a2" style="fill: var(--color2, #aa43a2)" d="M16.163 24.092c1.32-1.187 2.156-2.903 2.156-4.819 0-3.585-2.906-6.49-6.49-6.49s-6.49 2.905-6.49 6.49c0 1.912 0.832 3.626 2.15 4.814-3.374 0.261-6.039 3.056-6.064 6.496l-0.064 1.292h20.709l0.064-1.195c0.013-1.753-0.675-3.434-1.911-4.678-1.092-1.101-2.532-1.769-4.061-1.91z"></path>
<path fill="#aa43a2" style="fill: var(--color2, #aa43a2)" d="M4.186 7.929v2.411c0 0.998 0.811 1.809 1.81 1.809 1 0 1.81-0.811 1.81-1.809v-2.411h2.408c0.999 0 1.81-0.811 1.81-1.81s-0.811-1.81-1.81-1.81h-2.408v-2.375c0-0.999-0.81-1.809-1.81-1.809-0.999 0-1.81 0.81-1.81 1.809v2.374h-2.376c-1 0-1.81 0.811-1.81 1.81s0.809 1.81 1.81 1.81l2.376 0.001z"></path>
</symbol>
<symbol id="icon-procent" viewBox="0 0 32 32">
<path fill="#aa43a2" style="fill: var(--color2, #aa43a2)" d="M32 16c0 8.837-7.163 16-16 16s-16-7.163-16-16c0-8.837 7.163-16 16-16s16 7.163 16 16z"></path>
<path fill="#fff" style="fill: var(--color1, #fff)" d="M20.754 8.065c-0.139 0.077-1.481 1.982-9.3 13.234-0.924 1.329-1.272 1.875-1.272 2.006 0 0.522 0.576 0.855 1.064 0.617 0.158-0.083 0.848-1.056 9.319-13.24 1.253-1.798 1.279-1.846 1.247-2.101-0.038-0.344-0.253-0.546-0.62-0.576-0.171-0.018-0.342 0.006-0.437 0.059z"></path>
<path fill="#fff" style="fill: var(--color1, #fff)" d="M11.629 9.483c-0.668 0.081-1.362 0.513-1.742 1.080-0.331 0.492-0.456 0.961-0.429 1.588 0.022 0.459 0.038 0.54 0.25 0.961 0.782 1.572 2.855 1.923 4.082 0.691 1.243-1.253 0.906-3.3-0.668-4.083-0.201-0.103-0.483-0.2-0.624-0.216s-0.315-0.038-0.391-0.049c-0.076-0.005-0.288 0.005-0.478 0.027zM12.384 10.752c0.374 0.108 0.771 0.497 0.863 0.843 0.103 0.367 0.049 0.805-0.141 1.102-0.537 0.87-1.867 0.794-2.301-0.124-0.353-0.751 0.081-1.658 0.896-1.858 0.255-0.059 0.369-0.054 0.684 0.038z"></path>
<path fill="#fff" style="fill: var(--color1, #fff)" d="M18.626 18.261c-0.434 0.114-0.809 0.336-1.146 0.673-1.602 1.6-0.478 4.344 1.781 4.339 1.043 0 1.868-0.515 2.324-1.443 0.196-0.385 0.212-0.461 0.228-0.976 0.027-0.624-0.076-1.047-0.364-1.491-0.326-0.515-0.999-0.992-1.586-1.128-0.337-0.081-0.891-0.065-1.238 0.027zM19.728 19.487c0.136 0.043 0.32 0.168 0.478 0.32 0.842 0.841 0.261 2.24-0.934 2.229-0.532 0-0.956-0.266-1.173-0.743-0.5-1.068 0.472-2.148 1.629-1.806z"></path>
</symbol>
<symbol id="icon-telegram" viewBox="0 0 31 32">
<path fill="#fff" style="fill: var(--color1, #fff)" opacity="0.9" d="M28.312 6.355c-0.315-0.382-0.787-0.593-1.329-0.593-0.295 0-0.607 0.062-0.928 0.183l-21.84 8.268c-1.159 0.439-1.315 1.097-1.305 1.45s0.204 1.002 1.386 1.375c0.007 0.002 0.014 0.004 0.021 0.006l3.063 0.869 14.917-7.558c0.372-0.189 0.827-0.042 1.017 0.327 0.149 0.29 0.089 0.63-0.123 0.854l0.001 0.001-8.294 8.74-0.237 0.951 7.066 5.643c0.004 0.003 0.007 0.006 0.011 0.008 0.452 0.348 0.945 0.531 1.427 0.531 0.941 0 1.691-0.691 1.909-1.76l3.578-17.524c0.143-0.703 0.023-1.333-0.339-1.772z"></path>
<path fill="#fff" style="fill: var(--color1, #fff)" opacity="0.9" d="M13.477 19.728c0.030-0.121 0.091-0.237 0.183-0.334l5.442-5.735-10.099 5.117 2.293 6.504c0.131 0.371 0.325 0.686 0.566 0.933l1.614-6.484 0 0z"></path>
<path fill="#fff" style="fill: var(--color1, #fff)" opacity="0.9" d="M13.27 26.814c0.545-0.005 1.081-0.233 1.55-0.661l1.678-1.532-2.237-1.786-0.991 3.979z"></path>
</symbol>
<symbol id="icon-youtube" viewBox="0 0 31 32">
<path fill="#fff" style="fill: var(--color1, #fff)" d="M29.712 7.801c-0.842-1.485-1.755-1.758-3.615-1.862-1.858-0.125-6.53-0.177-10.577-0.177-4.055 0-8.729 0.052-10.585 0.175-1.856 0.106-2.771 0.377-3.621 1.864-0.867 1.483-1.313 4.037-1.313 8.534 0 0.004 0 0.006 0 0.006 0 0.004 0 0.006 0 0.006v0.004c0 4.478 0.446 7.051 1.313 8.519 0.849 1.485 1.763 1.754 3.619 1.879 1.858 0.108 6.532 0.171 10.587 0.171 4.048 0 8.72-0.063 10.579-0.169 1.86-0.125 2.773-0.394 3.615-1.879 0.875-1.468 1.317-4.041 1.317-8.519 0 0 0-0.006 0-0.010 0 0 0-0.004 0-0.006 0-4.499-0.442-7.053-1.319-8.536z"></path>
<path fill="#263238" style="fill: var(--color9, #263238)" d="M11.636 22.111v-11.54l9.697 5.77-9.697 5.77z"></path>
</symbol>
<symbol id="icon-logo">
<svg xmlns="http://www.w3.org/2000/svg" width="143" height="37" fill="none">
  <path fill="#FEC830" d="M53.804 7.053a2 2 0 0 1 1.88-2.129l82.685-4.81a2 2 0 0 1 2.111 1.849l2.006 26.973a2 2 0 0 1-1.872 2.145l-82.883 5.096a2 2 0 0 1-2.119-1.864l-1.808-27.26Z"/>
  <path fill="#000" d="M3.91 34.439a2.007 2.007 0 0 1-2.122-1.903C1.424 25.368.481 10.893.132 5.598a1.992 1.992 0 0 1 1.879-2.119L45.043.925a2 2 0 0 1 1.701.773L56.922 14.87a2 2 0 0 1 .123 2.267l-8.507 13.89a2 2 0 0 1-1.592.953L3.91 34.439Z"/>
  <path fill="#fff" d="M11.125 18.712a7.187 7.187 0 0 1 .385-2.91 7.085 7.085 0 0 1 1.436-2.432 7.45 7.45 0 0 1 2.335-1.71 8.179 8.179 0 0 1 3.017-.775c1.203-.08 2.278.025 3.226.314.97.3 1.878.767 2.683 1.38l-2.128 2.906a6.064 6.064 0 0 0-1.674-.876 4.893 4.893 0 0 0-1.848-.2 3.447 3.447 0 0 0-1.4.373 3.412 3.412 0 0 0-1.118.914c-.652.791-.941 1.727-.867 2.808.078 1.151.506 2.077 1.283 2.777.777.7 1.728 1.012 2.855.936.92-.062 1.668-.317 2.243-.764l-.12-1.77-2.832.19-.193-2.826 6.56-.439.434 6.372c-1.685 1.56-3.694 2.417-6.024 2.57-1.465.1-2.808-.124-4.03-.668a6.967 6.967 0 0 1-2.955-2.432c-.75-1.079-1.172-2.325-1.268-3.738ZM28.6 17.564c-.07-.98.064-1.964.396-2.89a7.3 7.3 0 0 1 1.446-2.445 7.532 7.532 0 0 1 2.338-1.73 8.323 8.323 0 0 1 6.091-.411c.929.295 1.79.769 2.533 1.393a7.175 7.175 0 0 1 1.742 2.227c.45.882.713 1.845.776 2.831.07.98-.065 1.965-.396 2.891a7.265 7.265 0 0 1-1.441 2.447 7.491 7.491 0 0 1-2.332 1.726 8 8 0 0 1-3.004.784c-1.437.096-2.765-.143-3.983-.716a7.172 7.172 0 0 1-4.166-6.107Zm4.044-.27c.07 1.044.476 1.917 1.216 2.62.74.703 1.636 1.019 2.69.948 1.067-.07 1.913-.498 2.538-1.283.625-.784.901-1.708.829-2.771-.071-1.045-.476-1.918-1.215-2.621-.74-.703-1.644-1.019-2.713-.947-1.054.07-1.893.498-2.518 1.282-.625.784-.901 1.708-.827 2.772ZM66.206 27.383l-.963-14.105 3.945-.263.966 14.105-3.948.263ZM71.454 16.311l-.234-3.434 12.502-.836.234 3.434-4.282.285.729 10.675-3.945.263-.729-10.675-4.275.288ZM83.691 20.75a6.077 6.077 0 0 1 .26-2.262c.211-.69.555-1.332 1.014-1.89a5.293 5.293 0 0 1 1.682-1.33 5.623 5.623 0 0 1 2.21-.597c.92-.061 1.753.043 2.498.313a4.561 4.561 0 0 1 1.838 1.194 5.926 5.926 0 0 1 1.138 1.827c.284.726.452 1.492.498 2.27.025.347.036.61.035.788l-7.374.492c.193.587.508 1.023.945 1.307.437.284.96.405 1.567.364.858-.06 1.646-.492 2.366-1.299l2.258 1.625c-1.074 1.54-2.62 2.377-4.641 2.512-1.146.078-2.181-.09-3.106-.503a5.153 5.153 0 0 1-2.228-1.867c-.563-.834-.883-1.816-.96-2.945Zm3.606-1.15 3.826-.257c-.115-.605-.353-1.073-.715-1.404-.361-.33-.804-.478-1.328-.444a1.679 1.679 0 0 0-1.22.62c-.317.38-.505.874-.563 1.484ZM96.208 19.913a6.091 6.091 0 0 1 .26-2.262c.21-.69.554-1.332 1.013-1.891a5.307 5.307 0 0 1 1.68-1.329 5.615 5.615 0 0 1 2.212-.596c.921-.062 1.753.042 2.498.312a4.552 4.552 0 0 1 1.838 1.192 5.908 5.908 0 0 1 1.138 1.826 7.43 7.43 0 0 1 .499 2.273c.024.348.035.61.034.788l-7.373.493c.193.587.508 1.022.945 1.306.437.284.959.405 1.567.365.861-.058 1.65-.492 2.367-1.3l2.258 1.624c-1.074 1.54-2.621 2.378-4.641 2.513-1.147.077-2.182-.09-3.106-.503a5.156 5.156 0 0 1-2.228-1.867c-.564-.835-.884-1.816-.961-2.944Zm3.606-1.151 3.825-.256c-.115-.605-.353-1.073-.715-1.404-.362-.331-.804-.48-1.328-.444a1.66 1.66 0 0 0-1.22.62c-.317.38-.505.875-.563 1.484ZM109.543 24.486l-.743-10.9 3.865-.26.106 1.545c.862-1.257 1.92-1.928 3.173-2.011 1.166-.079 2.106.217 2.821.888.715.67 1.115 1.63 1.2 2.875l.486 7.133-3.865.258-.406-5.888c-.039-.582-.211-1.023-.515-1.32-.305-.299-.692-.433-1.164-.402-.485.033-.867.22-1.144.56-.276.34-.395.798-.357 1.374l.402 5.888-3.859.26ZM121.714 22.252l1.292-2.416c1.328.725 2.618 1.045 3.87.962.649-.045.96-.268.932-.669-.013-.191-.156-.34-.429-.447-.273-.107-.743-.221-1.401-.344-.5-.094-.926-.187-1.278-.28a6.848 6.848 0 0 1-1.084-.387 3.435 3.435 0 0 1-.902-.565 2.646 2.646 0 0 1-.589-.806 2.951 2.951 0 0 1-.286-1.124c-.079-1.155.266-2.081 1.038-2.78.771-.699 1.812-1.092 3.124-1.18a8.617 8.617 0 0 1 2.43.185 7.9 7.9 0 0 1 2.203.823l-1.156 2.518a9.808 9.808 0 0 0-1.778-.597c-.595-.137-1.111-.19-1.548-.16-.292.019-.51.081-.656.187a.445.445 0 0 0-.203.417c.013.192.155.34.425.447.27.106.746.233 1.429.38.499.101.925.2 1.278.3.371.105.734.24 1.085.4.328.14.633.33.902.564.243.226.443.494.588.792.168.341.264.712.284 1.09.081 1.192-.26 2.133-1.025 2.826-.764.693-1.836 1.085-3.214 1.177-1.968.13-3.745-.307-5.331-1.313Z"/>
</svg>
</symbol>
<symbol id="icon-logo-small">
  <path fill="#FEC830" d="M30.236 4.84a2 2 0 0 1 1.88-2.13L76.743.114a2 2 0 0 1 2.11 1.849l.996 13.38a2 2 0 0 1-1.872 2.144l-44.726 2.75a2 2 0 0 1-2.119-1.864L30.236 4.84Z"/>
  <path fill="#000" d="M3.083 19.265a2.02 2.02 0 0 1-2.127-1.91C.748 13.521.342 7.225.132 4.024a1.998 1.998 0 0 1 1.879-2.125L24.8.546a2 2 0 0 1 1.7.774l5.055 6.54a2 2 0 0 1 .123 2.268l-4.215 6.883a2 2 0 0 1-1.591.952L3.083 19.265Z"/>
  <path fill="#fff" d="M6.24 10.495a4.032 4.032 0 0 1 .216-1.633c.174-.503.448-.967.805-1.363a4.178 4.178 0 0 1 1.31-.96c.53-.251 1.105-.399 1.692-.434.675-.045 1.278.014 1.81.176.543.168 1.052.43 1.504.774l-1.193 1.63a3.402 3.402 0 0 0-.94-.492 2.744 2.744 0 0 0-1.036-.112 1.934 1.934 0 0 0-1.412.722c-.366.444-.528.969-.487 1.575.044.646.284 1.165.72 1.558.436.392.97.567 1.601.525.516-.035.936-.178 1.259-.429l-.068-.993-1.589.107-.107-1.585 3.678-.246.244 3.573c-.945.875-2.071 1.356-3.379 1.442-.82.056-1.574-.07-2.26-.375a3.906 3.906 0 0 1-1.657-1.364c-.42-.605-.657-1.304-.711-2.096ZM16.04 9.851c-.04-.55.037-1.101.223-1.62.177-.506.453-.972.81-1.372.37-.405.815-.735 1.312-.97a4.668 4.668 0 0 1 3.416-.231c.521.166 1.004.431 1.421.781.406.349.738.773.977 1.25.252.494.4 1.034.435 1.587a3.98 3.98 0 0 1-.222 1.622c-.176.505-.45.972-.808 1.372a4.203 4.203 0 0 1-1.308.968c-.527.255-1.1.405-1.685.44a4.46 4.46 0 0 1-2.234-.402 4.022 4.022 0 0 1-2.337-3.425ZM18.31 9.7c.04.586.267 1.076.682 1.47.414.394.917.572 1.508.532.599-.04 1.073-.28 1.424-.72.35-.44.506-.958.465-1.554a2.16 2.16 0 0 0-.682-1.47c-.414-.394-.921-.571-1.521-.531-.591.04-1.062.279-1.413.719-.35.44-.505.958-.463 1.554ZM37.133 15.358l-.54-7.911 2.212-.148.542 7.911-2.214.148ZM40.077 9.148l-.132-1.926 7.012-.468.131 1.925-2.401.16.409 5.987-2.213.148-.409-5.987-2.397.161ZM46.94 11.637a3.407 3.407 0 0 1 .146-1.268c.118-.386.31-.747.568-1.06.26-.31.58-.563.943-.745.386-.196.808-.31 1.24-.335.516-.035.984.024 1.401.175.394.137.748.367 1.031.67.274.3.49.647.638 1.024.16.408.254.837.28 1.273.014.195.02.343.02.442l-4.136.277c.108.329.285.573.53.732.245.16.538.228.879.205.48-.034.923-.276 1.327-.729l1.266.911c-.602.864-1.47 1.334-2.603 1.41-.643.043-1.224-.051-1.742-.283a2.89 2.89 0 0 1-1.25-1.047c-.316-.468-.495-1.018-.538-1.652Zm2.022-.644 2.146-.144c-.064-.34-.198-.602-.4-.787a.963.963 0 0 0-.746-.25.942.942 0 0 0-.684.348c-.178.213-.283.49-.316.833ZM53.96 11.168a3.418 3.418 0 0 1 .145-1.268c.118-.387.311-.747.568-1.061.26-.31.58-.563.943-.745a3.15 3.15 0 0 1 1.24-.335c.517-.034.984.024 1.401.175.394.136.748.366 1.032.669.273.3.49.647.638 1.024.16.408.254.838.28 1.275.013.195.02.342.018.442l-4.135.277c.108.329.285.573.53.732.245.16.538.227.88.205.482-.033.925-.276 1.327-.73l1.266.911c-.602.864-1.47 1.334-2.603 1.41-.643.043-1.224-.051-1.742-.282a2.892 2.892 0 0 1-1.25-1.048c-.316-.468-.495-1.018-.539-1.65Zm2.022-.645 2.145-.144c-.064-.339-.198-.601-.4-.787a.962.962 0 0 0-.745-.25.94.94 0 0 0-.685.348c-.178.214-.283.491-.315.833ZM61.438 13.733l-.416-6.114 2.168-.145.059.866c.483-.705 1.076-1.08 1.78-1.128.653-.044 1.18.123 1.582.499.4.376.625.913.673 1.612l.272 4.001-2.168.145-.227-3.303c-.022-.326-.119-.573-.29-.74a.812.812 0 0 0-.652-.226.863.863 0 0 0-.641.314c-.156.191-.222.448-.2.771l.225 3.303-2.165.145ZM68.265 12.48l.725-1.354c.744.406 1.468.586 2.17.539.364-.025.538-.15.523-.375-.007-.107-.088-.191-.241-.251s-.417-.124-.786-.193c-.28-.053-.519-.105-.716-.156a3.836 3.836 0 0 1-.608-.218 1.936 1.936 0 0 1-.506-.317 1.484 1.484 0 0 1-.33-.452 1.66 1.66 0 0 1-.161-.63c-.045-.648.15-1.168.582-1.56.432-.391 1.016-.612 1.752-.66.457-.031.916.004 1.363.103.433.091.85.247 1.236.461l-.649 1.412a5.499 5.499 0 0 0-.997-.335 3.044 3.044 0 0 0-.868-.09c-.164.011-.286.046-.368.106a.254.254 0 0 0-.114.233c.007.108.087.192.238.251.152.06.419.13.802.213.28.057.519.113.717.168.208.06.411.135.608.225.184.079.355.186.506.316.137.127.248.278.33.444.094.192.148.4.16.612.045.668-.147 1.196-.575 1.585-.43.388-1.03.608-1.804.66-1.103.073-2.1-.172-2.99-.737Z"/>
</symbol>
<symbol id="icon-menu">
  <path fill="#AA43A2" d="M6.667 30h26.666C34.25 30 35 29.25 35 28.333c0-.916-.75-1.666-1.667-1.666H6.667c-.917 0-1.667.75-1.667 1.666C5 29.25 5.75 30 6.667 30Zm0-8.333h26.666c.917 0 1.667-.75 1.667-1.667s-.75-1.667-1.667-1.667H6.667C5.75 18.333 5 19.083 5 20s.75 1.667 1.667 1.667ZM5 11.667c0 .916.75 1.666 1.667 1.666h26.666c.917 0 1.667-.75 1.667-1.666C35 10.75 34.25 10 33.333 10H6.667C5.75 10 5 10.75 5 11.667Z"/>
</symbol>
<symbol id="icon-logo-big">
  <path fill="#FEC830" d="M53.804 7.053a2 2 0 0 1 1.88-2.129l82.685-4.81a2 2 0 0 1 2.111 1.849l2.006 26.973a2 2 0 0 1-1.872 2.145l-82.883 5.096a2 2 0 0 1-2.119-1.864l-1.808-27.26Z"/>
  <path fill="#000" d="M3.91 34.439a2.007 2.007 0 0 1-2.122-1.903C1.424 25.368.481 10.893.132 5.598a1.992 1.992 0 0 1 1.879-2.119L45.043.925a2 2 0 0 1 1.701.773L56.922 14.87a2 2 0 0 1 .123 2.267l-8.507 13.89a2 2 0 0 1-1.592.953L3.91 34.439Z"/>
  <path fill="#fff" d="M11.125 18.712a7.187 7.187 0 0 1 .385-2.91 7.085 7.085 0 0 1 1.436-2.432 7.45 7.45 0 0 1 2.335-1.71 8.179 8.179 0 0 1 3.017-.775c1.203-.08 2.278.025 3.226.314.97.3 1.878.767 2.683 1.38l-2.128 2.906a6.064 6.064 0 0 0-1.674-.876 4.893 4.893 0 0 0-1.848-.2 3.447 3.447 0 0 0-1.4.373 3.412 3.412 0 0 0-1.118.914c-.652.791-.941 1.727-.867 2.808.078 1.151.506 2.077 1.283 2.777.777.7 1.728 1.012 2.855.936.92-.062 1.668-.317 2.243-.764l-.12-1.77-2.832.19-.193-2.826 6.56-.439.434 6.372c-1.685 1.56-3.694 2.417-6.024 2.57-1.465.1-2.808-.124-4.03-.668a6.967 6.967 0 0 1-2.955-2.432c-.75-1.079-1.172-2.325-1.268-3.738ZM28.6 17.564c-.07-.98.064-1.964.396-2.89a7.3 7.3 0 0 1 1.446-2.445 7.532 7.532 0 0 1 2.338-1.73 8.323 8.323 0 0 1 6.091-.411c.929.295 1.79.769 2.533 1.393a7.175 7.175 0 0 1 1.742 2.227c.45.882.713 1.845.776 2.831.07.98-.065 1.965-.396 2.891a7.265 7.265 0 0 1-1.441 2.447 7.491 7.491 0 0 1-2.332 1.726 8 8 0 0 1-3.004.784c-1.437.096-2.765-.143-3.983-.716a7.172 7.172 0 0 1-4.166-6.107Zm4.044-.27c.07 1.044.476 1.917 1.216 2.62.74.703 1.636 1.019 2.69.948 1.067-.07 1.913-.498 2.538-1.283.625-.784.901-1.708.829-2.771-.071-1.045-.476-1.918-1.215-2.621-.74-.703-1.644-1.019-2.713-.947-1.054.07-1.893.498-2.518 1.282-.625.784-.901 1.708-.827 2.772ZM66.206 27.383l-.963-14.105 3.945-.263.966 14.105-3.948.263ZM71.454 16.311l-.234-3.434 12.502-.836.234 3.434-4.282.285.729 10.675-3.945.263-.729-10.675-4.275.288ZM83.691 20.75a6.077 6.077 0 0 1 .26-2.262c.211-.69.555-1.332 1.014-1.89a5.293 5.293 0 0 1 1.682-1.33 5.623 5.623 0 0 1 2.21-.597c.92-.061 1.753.043 2.498.313a4.561 4.561 0 0 1 1.838 1.194 5.926 5.926 0 0 1 1.138 1.827c.284.726.452 1.492.498 2.27.025.347.036.61.035.788l-7.374.492c.193.587.508 1.023.945 1.307.437.284.96.405 1.567.364.858-.06 1.646-.492 2.366-1.299l2.258 1.625c-1.074 1.54-2.62 2.377-4.641 2.512-1.146.078-2.181-.09-3.106-.503a5.153 5.153 0 0 1-2.228-1.867c-.563-.834-.883-1.816-.96-2.945Zm3.606-1.15 3.826-.257c-.115-.605-.353-1.073-.715-1.404-.361-.33-.804-.478-1.328-.444a1.679 1.679 0 0 0-1.22.62c-.317.38-.505.874-.563 1.484ZM96.208 19.913a6.091 6.091 0 0 1 .26-2.262c.21-.69.554-1.332 1.013-1.891a5.307 5.307 0 0 1 1.68-1.329 5.615 5.615 0 0 1 2.212-.596c.921-.062 1.753.042 2.498.312a4.552 4.552 0 0 1 1.838 1.192 5.908 5.908 0 0 1 1.138 1.826 7.43 7.43 0 0 1 .499 2.273c.024.348.035.61.034.788l-7.373.493c.193.587.508 1.022.945 1.306.437.284.959.405 1.567.365.861-.058 1.65-.492 2.367-1.3l2.258 1.624c-1.074 1.54-2.621 2.378-4.641 2.513-1.147.077-2.182-.09-3.106-.503a5.156 5.156 0 0 1-2.228-1.867c-.564-.835-.884-1.816-.961-2.944Zm3.606-1.151 3.825-.256c-.115-.605-.353-1.073-.715-1.404-.362-.331-.804-.48-1.328-.444a1.66 1.66 0 0 0-1.22.62c-.317.38-.505.875-.563 1.484ZM109.543 24.486l-.743-10.9 3.865-.26.106 1.545c.862-1.257 1.92-1.928 3.173-2.011 1.166-.079 2.106.217 2.821.888.715.67 1.115 1.63 1.2 2.875l.486 7.133-3.865.258-.406-5.888c-.039-.582-.211-1.023-.515-1.32-.305-.299-.692-.433-1.164-.402-.485.033-.867.22-1.144.56-.276.34-.395.798-.357 1.374l.402 5.888-3.859.26ZM121.714 22.252l1.292-2.416c1.328.725 2.618 1.045 3.87.962.649-.045.96-.268.932-.669-.013-.191-.156-.34-.429-.447-.273-.107-.743-.221-1.401-.344-.5-.094-.926-.187-1.278-.28a6.848 6.848 0 0 1-1.084-.387 3.435 3.435 0 0 1-.902-.565 2.646 2.646 0 0 1-.589-.806 2.951 2.951 0 0 1-.286-1.124c-.079-1.155.266-2.081 1.038-2.78.771-.699 1.812-1.092 3.124-1.18a8.617 8.617 0 0 1 2.43.185 7.9 7.9 0 0 1 2.203.823l-1.156 2.518a9.808 9.808 0 0 0-1.778-.597c-.595-.137-1.111-.19-1.548-.16-.292.019-.51.081-.656.187a.445.445 0 0 0-.203.417c.013.192.155.34.425.447.27.106.746.233 1.429.38.499.101.925.2 1.278.3.371.105.734.24 1.085.4.328.14.633.331.902.564.243.226.443.494.588.792.168.341.264.712.284 1.09.081 1.192-.26 2.133-1.025 2.826-.764.693-1.836 1.085-3.214 1.177-1.968.13-3.745-.307-5.331-1.313Z"/>
</symbol>
<symbol id="icon-full-star">
  <path fill="#FFCD2B" d="M9.944 6.4 8 0 6.056 6.4H0l4.944 3.528L3.064 16 8 12.248 12.944 16l-1.88-6.072L16 6.4H9.944Z"/>
  <defs>
    <linearGradient id="a" x1="11.635" x2="11.413" y1="0" y2="15.998" gradientUnits="userSpaceOnUse">
      <stop stop-color="#FFCD2B"/>
      <stop offset=".13" stop-color="#FFD531"/>
      <stop offset=".247" stop-color="#FFD832"/>
      <stop offset=".615" stop-color="#FFD72D"/>
      <stop offset=".834" stop-color="#FED22B"/>
      <stop offset="1" stop-color="#FFD42D"/>
    </linearGradient>
  </defs>
</symbol>
<symbol id="icon-star-50">
  <path stroke="#FFCD2B" stroke-width=".5" d="m9.705 6.473.054.177H15.22L10.92 9.725l-.147.105.053.172 1.65 5.328L8.15 12.05 8 11.934l-.151.115-4.316 3.28 1.65-5.327.053-.173-.147-.104L.781 6.65h5.46l.054-.177L8 .86l1.705 5.613Z"/>
  <path fill="#FFCD2B" d="M8 8.5V0L6.056 6.4H0l4.944 3.528L3.064 16 8 12.248V8.5Z"/>
  <defs>
    <linearGradient id="a" x1="0" x2="16.999" y1="9.5" y2="9.651" gradientUnits="userSpaceOnUse">
      <stop offset=".429" stop-color="#FFCD2B"/>
      <stop offset="1" stop-color="#FFD42D"/>
    </linearGradient>
  </defs>
</symbol>
</defs>
</svg>
