<svg width="20" height="20" viewBox="0 0 20 20" fill="none" xmlns="http://www.w3.org/2000/svg">
<path d="M9.07763 1.34917C9.42034 0.530936 10.5797 0.530934 10.9224 1.34917L12.9535 6.19863C13.0977 6.54286 13.4215 6.77816 13.7935 6.80891L19.0332 7.24207C19.9173 7.31515 20.2756 8.41772 19.6033 8.99651L15.6188 12.4268C15.336 12.6703 15.2123 13.051 15.298 13.4142L16.5052 18.5314C16.7089 19.3948 15.771 20.0762 15.0128 19.6157L10.5191 16.8863C10.2002 16.6925 9.79984 16.6925 9.48087 16.8863L4.9872 19.6157C4.229 20.0762 3.2911 19.3948 3.49479 18.5314L4.702 13.4142C4.7877 13.051 4.66399 12.6703 4.38116 12.4268L0.396711 8.9965C-0.275577 8.41772 0.0826712 7.31515 0.966765 7.24207L6.20652 6.80891C6.57846 6.77816 6.90233 6.54286 7.0465 6.19863L9.07763 1.34917Z" fill="#FFB703"/>
</svg>
