<svg width="159" height="40" viewBox="0 0 159 40" fill="none" xmlns="http://www.w3.org/2000/svg">
<path d="M61.7838 4.09943L62.0256 5.32582L61.7838 4.09943ZM157.87 29.1365C158.549 29.0162 159.003 28.3677 158.883 27.6879L156.924 16.6098C156.803 15.93 156.155 15.4764 155.475 15.5966C154.795 15.7168 154.342 16.3654 154.462 17.0452L156.203 26.8924L146.356 28.6339C145.676 28.7542 145.223 29.4027 145.343 30.0825C145.463 30.7623 146.112 31.216 146.792 31.0957L157.87 29.1365ZM3.5733 37.9933C4.05121 37.4951 4.03479 36.7038 3.5366 36.2259C3.03842 35.748 2.24713 35.7644 1.76922 36.2626L3.5733 37.9933ZM6.12869 31.9519C5.62519 32.4243 5.59992 33.2153 6.07224 33.7188C6.54456 34.2223 7.33562 34.2476 7.83911 33.7752L6.12869 31.9519ZM10.8026 31.0908C11.3222 30.6363 11.375 29.8466 10.9205 29.327C10.466 28.8074 9.67636 28.7546 9.15672 29.2091L10.8026 31.0908ZM13.8749 25.2939C13.3324 25.7209 13.2387 26.5068 13.6656 27.0493C14.0926 27.5918 14.8785 27.6855 15.421 27.2585L13.8749 25.2939ZM18.6062 24.8394C19.163 24.4314 19.2837 23.6492 18.8756 23.0923C18.4676 22.5355 17.6854 22.4148 17.1285 22.8229L18.6062 24.8394ZM22.1635 19.3285C21.5864 19.7075 21.4258 20.4825 21.8047 21.0595C22.1837 21.6366 22.9587 21.7972 23.5357 21.4182L22.1635 19.3285ZM26.9175 19.2793C27.5072 18.9203 27.6941 18.1512 27.3351 17.5616C26.9761 16.9719 26.2071 16.7849 25.6174 17.1439L26.9175 19.2793ZM30.9322 14.0923C30.3248 14.4205 30.0986 15.1789 30.4268 15.7863C30.7551 16.3936 31.5135 16.6198 32.1209 16.2916L30.9322 14.0923ZM35.6714 14.451C36.2896 14.1439 36.5419 13.3937 36.2348 12.7754C35.9277 12.1571 35.1776 11.9048 34.5593 12.2119L35.6714 14.451ZM40.119 9.6297C39.4854 9.90389 39.1941 10.6398 39.4683 11.2733C39.7425 11.9069 40.4784 12.1982 41.1119 11.9241L40.119 9.6297ZM44.81 10.4014C45.453 10.1501 45.7705 9.42514 45.5192 8.78215C45.2678 8.13917 44.5429 7.82165 43.8999 8.07297L44.81 10.4014ZM49.6728 5.99815C49.0168 6.21337 48.6596 6.91959 48.8748 7.57554C49.09 8.2315 49.7962 8.58878 50.4522 8.37356L49.6728 5.99815ZM54.2711 7.20141C54.9349 7.01175 55.3193 6.3199 55.1296 5.6561C54.94 4.99231 54.2481 4.60794 53.5843 4.7976L54.2711 7.20141ZM59.5371 3.29131C58.8628 3.43963 58.4365 4.10644 58.5848 4.78068C58.7331 5.45491 59.4 5.88125 60.0742 5.73293L59.5371 3.29131ZM64.0025 4.95182C64.6819 4.82885 65.1329 4.17846 65.0099 3.49915C64.8869 2.81984 64.2365 2.36883 63.5572 2.4918L64.0025 4.95182ZM69.6515 1.54752C68.9668 1.63524 68.4828 2.26146 68.5705 2.94622C68.6582 3.63098 69.2844 4.11497 69.9692 4.02725L69.6515 1.54752ZM73.9629 3.58975C74.6504 3.5273 75.1571 2.91932 75.0947 2.2318C75.0322 1.54427 74.4243 1.03755 73.7367 1.1L73.9629 3.58975ZM79.8933 0.716654C79.2034 0.739805 78.6628 1.3179 78.6859 2.00787C78.7091 2.69784 79.2872 3.2384 79.9772 3.21525L79.8933 0.716654ZM84.0038 3.15798C84.6942 3.16153 85.2567 2.60476 85.2602 1.91442C85.2638 1.22407 84.707 0.66156 84.0167 0.658017L84.0038 3.15798ZM90.1802 0.868206C89.4912 0.824748 88.8974 1.34805 88.854 2.03704C88.8105 2.72602 89.3338 3.31979 90.0228 3.36325L90.1802 0.868206ZM94.0274 3.69299C94.7142 3.76277 95.3276 3.26256 95.3973 2.57574C95.4671 1.88892 94.9669 1.27558 94.2801 1.2058L94.0274 3.69299ZM100.4 2.00332C99.7185 1.89492 99.0779 2.35974 98.9695 3.04153C98.8611 3.72333 99.3259 4.3639 100.008 4.47231L100.4 2.00332ZM103.974 5.17821C104.651 5.31162 105.308 4.87068 105.442 4.19333C105.575 3.51599 105.134 2.85875 104.457 2.72534L103.974 5.17821ZM110.472 4.07913C109.803 3.90972 109.123 4.31492 108.954 4.98417C108.784 5.65341 109.189 6.33328 109.859 6.50269L110.472 4.07913ZM113.741 7.55734C114.404 7.74968 115.098 7.36812 115.29 6.7051C115.483 6.04208 115.101 5.34867 114.438 5.15633L113.741 7.55734ZM120.311 7.02053C119.658 6.79552 118.946 7.14219 118.721 7.79484C118.496 8.4475 118.843 9.15899 119.496 9.38401L120.311 7.02053ZM123.286 10.759C123.932 11.0047 124.654 10.6808 124.899 10.0356C125.145 9.3904 124.821 8.66826 124.176 8.42263L123.286 10.759ZM129.869 10.7406C129.235 10.4659 128.499 10.7567 128.224 11.3901C127.95 12.0235 128.241 12.7596 128.874 13.0342L129.869 10.7406ZM132.549 14.6916C133.174 14.9845 133.918 14.7151 134.211 14.0899C134.504 13.4648 134.234 12.7206 133.609 12.4277L132.549 14.6916ZM139.135 15.1582C138.523 14.8398 137.768 15.0782 137.449 15.6908C137.131 16.3033 137.369 17.058 137.982 17.3764L139.135 15.1582ZM141.54 19.2857C142.144 19.62 142.904 19.4014 143.239 18.7974C143.573 18.1934 143.354 17.4327 142.75 17.0984L141.54 19.2857ZM148.059 20.1682C147.468 19.8117 146.7 20.002 146.343 20.5932C145.987 21.1843 146.177 21.9526 146.768 22.3091L148.059 20.1682ZM150.203 24.4362C150.786 24.8065 151.558 24.6344 151.929 24.0517C152.299 23.4691 152.127 22.6966 151.544 22.3263L150.203 24.4362ZM156.67 25.7066C156.1 25.317 155.322 25.4632 154.932 26.0332C154.543 26.6031 154.689 27.3809 155.259 27.7705L156.67 25.7066ZM2.20098 39.4493C2.6553 38.9587 3.11278 38.4733 3.5733 37.9933L1.76922 36.2626C1.29854 36.7532 0.830952 37.2493 0.366579 37.7508L2.20098 39.4493ZM7.83911 33.7752C8.81638 32.8585 9.8046 31.9637 10.8026 31.0908L9.15672 29.2091C8.13706 30.1009 7.12731 31.0151 6.12869 31.9519L7.83911 33.7752ZM15.421 27.2585C16.4747 26.4293 17.5369 25.623 18.6062 24.8394L17.1285 22.8229C16.0363 23.6232 14.9513 24.4469 13.8749 25.2939L15.421 27.2585ZM23.5357 21.4182C24.6579 20.6813 25.7856 19.9684 26.9175 19.2793L25.6174 17.1439C24.4614 17.8477 23.3096 18.5759 22.1635 19.3285L23.5357 21.4182ZM32.1209 16.2916C33.3028 15.6528 34.4868 15.0393 35.6714 14.451L34.5593 12.2119C33.3491 12.813 32.1395 13.4397 30.9322 14.0923L32.1209 16.2916ZM41.1119 11.9241C42.3473 11.3894 43.5806 10.8819 44.81 10.4014L43.8999 8.07297C42.6427 8.56437 41.3818 9.08321 40.119 9.6297L41.1119 11.9241ZM50.4522 8.37356C51.7334 7.9532 53.0071 7.56257 54.2711 7.20141L53.5843 4.7976C52.289 5.1677 50.9844 5.56781 49.6728 5.99815L50.4522 8.37356ZM60.0742 5.73293C60.7285 5.589 61.3791 5.45331 62.0256 5.32582L61.542 2.87305C60.8774 3.00409 60.209 3.1435 59.5371 3.29131L60.0742 5.73293ZM62.0256 5.32582C62.6693 5.19891 63.3283 5.07388 64.0025 4.95182L63.5572 2.4918C62.8695 2.61631 62.1977 2.74377 61.542 2.87305L62.0256 5.32582ZM69.9692 4.02725C71.258 3.86215 72.5895 3.7145 73.9629 3.58975L73.7367 1.1C72.3313 1.22766 70.9693 1.37871 69.6515 1.54752L69.9692 4.02725ZM79.9772 3.21525C81.2881 3.17126 82.6305 3.15093 84.0038 3.15798L84.0167 0.658017C82.6103 0.650798 81.2356 0.671618 79.8933 0.716654L79.9772 3.21525ZM90.0228 3.36325C91.3335 3.44592 92.6686 3.55494 94.0274 3.69299L94.2801 1.2058C92.8891 1.06447 91.5223 0.95286 90.1802 0.868206L90.0228 3.36325ZM100.008 4.47231C101.31 4.67944 102.633 4.91405 103.974 5.17821L104.457 2.72534C103.085 2.45521 101.733 2.21523 100.4 2.00332L100.008 4.47231ZM109.859 6.50269C111.137 6.82637 112.432 7.17739 113.741 7.55734L114.438 5.15633C113.101 4.76837 111.779 4.40984 110.472 4.07913L109.859 6.50269ZM119.496 9.38401C120.746 9.81523 122.01 10.2731 123.286 10.759L124.176 8.42263C122.875 7.92735 121.586 7.4604 120.311 7.02053L119.496 9.38401ZM128.874 13.0342C130.088 13.5608 131.313 14.113 132.549 14.6916L133.609 12.4277C132.352 11.8389 131.105 11.2768 129.869 10.7406L128.874 13.0342ZM137.982 17.3764C139.159 17.9883 140.345 18.6245 141.54 19.2857L142.75 17.0984C141.537 16.4267 140.332 15.7802 139.135 15.1582L137.982 17.3764ZM146.768 22.3091C147.906 22.9951 149.051 23.7039 150.203 24.4362L151.544 22.3263C150.375 21.5835 149.214 20.8644 148.059 20.1682L146.768 22.3091ZM155.259 27.7705C155.816 28.1514 156.375 28.5379 156.936 28.9299L158.368 26.8813C157.801 26.4841 157.234 26.0926 156.67 25.7066L155.259 27.7705Z" fill="#8C8C8C"/>
</svg>
