<svg aria-hidden="true" style="position:absolute;width:0;height:0" xmlns="http://www.w3.org/2000/svg" xmlns:xlink="http://www.w3.org/1999/xlink" overflow="hidden"><defs><symbol id="icon-apple" viewBox="0 0 29 32"><path d="M18.959 5.209c1.083-1.392 1.856-3.248 1.624-5.105-1.624.077-3.558 1.083-4.718 2.398-1.005 1.16-1.934 3.094-1.702 4.873 1.856.232 3.635-.773 4.795-2.166zm1.624 2.63c-2.63-.155-4.872 1.469-6.11 1.469s-3.171-1.392-5.259-1.392c-2.707.077-5.182 1.547-6.574 4.022-2.784 4.873-.773 12.065 2.011 16.01 1.315 1.934 2.939 4.099 5.027 4.022 2.011-.078 2.784-1.315 5.182-1.315s3.094 1.315 5.259 1.237c2.166-.077 3.558-1.933 4.872-3.944 1.547-2.243 2.166-4.408 2.166-4.486-.077-.077-4.254-1.624-4.254-6.419-.077-4.022 3.248-5.955 3.403-6.033-1.779-2.784-4.718-3.094-5.723-3.171z"/></symbol><symbol id="icon-boy" viewBox="0 0 20 32"><path fill="var(--color1, #fff)" d="M16.055 22.41h-.794l-2.026-1.112v-.959a7.515 7.515 0 003.865-5.015 2.904 2.904 0 002.537-2.889c0-.789-.313-1.506-.82-2.031a.539.539 0 00.12-.339V5.856c0-2.329-1.803-4.266-4.073-4.446A3.449 3.449 0 0012.088 0H6.46C3.304 0 .736 2.593.736 5.781v4.284a.54.54 0 00.117.336 2.914 2.914 0 00-.817 2.034 2.904 2.904 0 002.537 2.889 7.517 7.517 0 003.865 5.015v.959L4.412 22.41h-.773c-2.006 0-3.638 1.648-3.638 3.674v5.379c0 .297.238.537.532.537h2.182c.294 0 .532-.241.532-.537s-.238-.537-.532-.537h-1.65v-4.841c0-1.433 1.155-2.599 2.574-2.599h.731l3.277 2.467a.53.53 0 00.411.098l.296 1.171-.721 3.705H5.198c-.294 0-.532.241-.532.537s.238.537.532.537h13.963a.535.535 0 00.532-.537v-5.379c0-2.026-1.632-3.674-3.638-3.674zm-1.914.609l-2.375 1.788-1.107-1.167 2.071-1.395 1.41.774zm-3.425 2.235l-.357 1.414H9.312l-.357-1.414.881-.929.881.929zM7.501 21.33v-.539a7.457 7.457 0 002.335.378 7.46 7.46 0 002.335-.378v.539l-2.335 1.572-2.335-1.572zm8.626-7.513a.097.097 0 01-.096.097h-4.234a.096.096 0 01-.096-.097v-3.118c0-.053.043-.097.096-.097h4.234c.053 0 .096.043.096.097v3.118zm2.445-1.382c0 .888-.628 1.63-1.458 1.799.049-.13.077-.27.077-.417v-3.118l-.002-.046a1.835 1.835 0 011.383 1.782zm-.7-6.58v3.672h-.777c-.269-1.175-.867-2.334-1.556-3.142l.001-.021c.012-.215.008-.127.008-2.869 0-.268-.035-.589-.114-.89l-.002-.007a3.399 3.399 0 012.439 3.257zm-2.641 1.92a6.43 6.43 0 01.767 1.752h-2.013a4.484 4.484 0 001.247-1.752zm-14.132 4.66c0-.863.584-1.587 1.383-1.782a.708.708 0 00-.002.046v3.118c0 .147.028.287.077.417a1.833 1.833 0 01-1.458-1.799zm.7-2.908V5.78c0-2.595 2.09-4.706 4.66-4.706h5.628a2.411 2.411 0 012.397 2.421v2.608c0 1.873-1.507 3.423-3.39 3.423H1.799zm7.23 1.075h1.612c-.007.082-.005-.013-.005 1.119H9.034c0-1.132.002-1.037-.005-1.119zm-5.485 3.215v-3.118c0-.053.043-.097.096-.097h4.234c.053 0 .096.043.096.097v3.118a.097.097 0 01-.096.097H3.64a.096.096 0 01-.096-.097zm.044 1.169l.052.003h4.234c.64 0 1.16-.526 1.16-1.171v-1.022h1.602v1.022c0 .646.52 1.171 1.16 1.171h4.234c.018 0 .035-.002.052-.003a6.384 6.384 0 01-6.248 5.108 6.382 6.382 0 01-6.248-5.108zm4.317 9.82L5.53 23.018l1.41-.774 2.071 1.395-1.107 1.167zm.812 6.119l.619-3.183h.998l.619 3.183H8.717zm9.911 0h-6.59l-.721-3.704.296-1.171a.53.53 0 00.411-.098l3.277-2.467h.752c1.419 0 2.574 1.166 2.574 2.599v4.842z"/></symbol><symbol id="icon-brackets" viewBox="0 0 55 32"><path fill="var(--color1, #fff)" d="M16.33 24.395L.842 17.611v-4.416L16.33 6.411v4.512L5.514 15.371l10.816 4.448v4.576zm1.909 6.368L32.415 1.131h4.128L22.367 30.763h-4.128zm20.681-6.368v-4.512l10.816-4.448-10.816-4.448V6.411l15.488 6.784v4.416L38.92 24.395z"/></symbol><symbol id="icon-children" viewBox="0 0 32 32"><path fill="var(--color1, #fff)" d="M23.053 18.747a1.54 1.54 0 001.538-1.538.469.469 0 00-.938 0 .602.602 0 01-1.202 0 .469.469 0 00-.938 0c0 .848.69 1.538 1.538 1.538zm2.458-2.629c.259 0 .469-.21.469-.469v-.49a.47.47 0 00-.058-.934h-.411a.469.469 0 00-.469.469v.955c0 .259.21.469.469.469zm-5.384-.959v.49a.469.469 0 00.938 0v-.955a.469.469 0 00-.469-.469h-.411a.469.469 0 00-.058.934z"/><path fill="var(--color1, #fff)" d="M30.059 15.733a2.167 2.167 0 00-.338-2.367.464.464 0 00.086-.27c0-1.385.069-2.206-.347-3.396a.47.47 0 00-.885.309c.34.973.295 1.648.295 2.618h-2.888a2.463 2.463 0 01-2.46-2.46.469.469 0 00-.938 0 2.463 2.463 0 01-2.46 2.46h-2.888v-.873a5.29 5.29 0 015.283-5.283c.035 0 .064.029.064.064a.469.469 0 00.938 0c0-.035.029-.064.064-.064 1.527 0 2.979.661 3.984 1.813a.469.469 0 00.706-.616 6.223 6.223 0 00-4.69-2.134.99.99 0 00-.533.154.998.998 0 00-.533-.154 6.228 6.228 0 00-6.221 6.221v1.342c0 .101.032.193.086.27a2.19 2.19 0 00-.379.605 2.367 2.367 0 00-.926-1.695v-1.786a6.383 6.383 0 00-6.376-6.376c-.873 0-.523-.015-1.731.079a5.325 5.325 0 00-4.059 2.408l-1.412-.451a.47.47 0 00-.611.424c-.007.141-.148 3.28.424 5.467A2.382 2.382 0 00-.003 14.17c0 1.207.903 2.207 2.07 2.36a6.11 6.11 0 002.807 3.845h-.986a2.942 2.942 0 00-2.939 2.939v4.108c0 .259.21.469.469.469h.779a.469.469 0 000-.938h-.31v-3.639c0-1.104.898-2.002 2.002-2.002h1.364a2.805 2.805 0 002.943 2.327 2.805 2.805 0 002.58-2.327h1.364c1.104 0 2.002.898 2.002 2.002v3.639H4.386a.469.469 0 000 .938h10.225c.259 0 .469-.21.469-.469v-4.108c0-.39-.077-.763-.216-1.104h.753c.472 0 .921-.094 1.332-.264a2.846 2.846 0 00-.458 1.55v3.925c0 .259.21.469.469.469h12.216c.259 0 .469-.21.469-.469v-3.925c0-.564-.165-1.09-.447-1.534.4.159.835.247 1.29.247h1.043c.259 0 .469-.21.469-.469v-2.871c0-1.335-.774-2.55-1.941-3.135zm-9.934-2.168a3.4 3.4 0 002.929-1.677 3.398 3.398 0 002.928 1.677h2.107c.684 0 1.241.557 1.241 1.241a1.241 1.241 0 01-1.291 1.24.468.468 0 00-.482.391 4.56 4.56 0 01-4.503 3.807 4.56 4.56 0 01-3.964-2.29.411.411 0 00-.027-.056 4.501 4.501 0 01-.432-1.079l-.005-.023a4.389 4.389 0 01-.076-.359.468.468 0 00-.482-.391 1.244 1.244 0 01-1.291-1.24c0-.684.557-1.241 1.241-1.241l.051.001c.02.001.04 0 .059-.001h1.996zm2.936 9.588a1.62 1.62 0 01-1.618-1.618v-.594c.532.163 1.088.24 1.61.24.539 0 1.101-.082 1.625-.244v.599c0 .864-.681 1.572-1.534 1.615l-.083.002zm-3.705-2.523h-.001c-.321 0-.63.054-.919.152.29-.392.5-.846.606-1.338a5.51 5.51 0 001.464 1.111v.074h-1.15zm6.26-.082a5.452 5.452 0 001.448-1.103c.105.486.312.935.596 1.323-.535-.173-.814-.138-2.044-.138v-.082zM1.813 7.232l1.169.374a.469.469 0 00.553-.22 4.39 4.39 0 013.511-2.259c1.178-.092.821-.077 1.658-.077a5.445 5.445 0 015.439 5.439v1.354c-.41-.088-.28-.053-6.709-.053a3.139 3.139 0 01-3.076-2.529.469.469 0 00-.802-.23 6.109 6.109 0 00-1.406 2.468c-.322-1.458-.348-3.319-.337-4.266zM2.92 16a.468.468 0 00-.462-.391h-.019l-.059.002a1.444 1.444 0 01-1.442-1.442c0-.782.623-1.414 1.39-1.441h.116a.469.469 0 00.476-.391 5.105 5.105 0 01.8-2.01 4.082 4.082 0 003.715 2.402h6.269a1.446 1.446 0 01.68.207 1.444 1.444 0 01-.748 2.676l-.059-.002a.47.47 0 00-.481.391 5.144 5.144 0 01-5.088 4.301 5.144 5.144 0 01-5.088-4.301zm5.002 6.704a1.866 1.866 0 01-1.759-1.669l-.002-.021-.005-.061a6.157 6.157 0 003.72-.006 1.866 1.866 0 01-1.954 1.757zm4.219-2.332h-1.004a6.104 6.104 0 002.807-3.845 2.388 2.388 0 001.907-1.494c.026.248.093.483.196.699a3.527 3.527 0 00-1.941 3.135v2.26a2.929 2.929 0 00-1.965-.756zm2.903.898v-2.402c0-1.043.644-1.986 1.595-2.376.311.254.686.414 1.061.469.108.452.279.894.484 1.283v.459a2.57 2.57 0 01-2.567 2.567h-.574zm13.664 5.681H17.43v-3.456c0-1.062.864-1.926 1.927-1.926h1.15a2.56 2.56 0 002.555 2.523 2.559 2.559 0 002.555-2.523h1.166c1.062 0 1.926.864 1.926 1.926v3.456zm2.354-5.681h-.574a2.57 2.57 0 01-2.567-2.567v-.459c.209-.395.378-.837.484-1.283a2.18 2.18 0 001.016-.435l.045-.034a2.583 2.583 0 011.595 2.376v2.402z"/><path fill="var(--color1, #fff)" d="M8.007 18.526c.918 0 1.664-.746 1.664-1.664a.469.469 0 00-.938 0 .727.727 0 01-1.452 0 .469.469 0 00-.938 0c0 .917.747 1.664 1.664 1.664zm-2.746-4.928a.469.469 0 00-.469.469v1.036a.469.469 0 00.938 0v-1.036a.469.469 0 00-.469-.469zm5.494 1.974c.259 0 .469-.21.469-.469v-1.036a.469.469 0 00-.938 0v1.036c0 .259.21.469.469.469z"/></symbol><symbol id="icon-facebook" viewBox="0 0 31 32"><path fill="var(--color1, #fff)" opacity=".9" d="M28.444 16.341c0-7.078-5.792-12.823-12.929-12.823S2.586 9.263 2.586 16.341c0 6.206 4.448 11.374 10.343 12.566v-8.719h-2.586v-3.847h2.586v-3.206c0-2.475 2.03-4.488 4.525-4.488h3.232v3.847H18.1c-.711 0-1.293.577-1.293 1.282v2.565h3.879v3.847h-3.879V29.1c6.529-.641 11.636-6.104 11.636-12.758z"/></symbol><symbol id="icon-free" viewBox="0 0 32 32"><path fill="var(--color2, #aa43a2)" d="M15.398 13.818a.603.603 0 00.426-1.028l-.426-.426-.852.852.426.425a.598.598 0 00.426.177z"/><path fill="var(--color2, #aa43a2)" d="M31.912 14.907a8.253 8.253 0 00-.835-2.725l-.013-.023c-.951-1.843-2.493-3.312-4.005-4.752a71.35 71.35 0 01-1.252-1.212c-.415-.413-.817-.837-1.219-1.259-1.523-1.599-3.091-3.217-5.084-4.147-.027-.009-.045-.032-.073-.037l-.033-.007a8.152 8.152 0 00-2.364-.661A6.553 6.553 0 0016.001 0c-8.823 0-16 7.177-16 16s7.177 16 16 16 16-7.177 16-16a6.53 6.53 0 00-.088-1.093zM16 30.667c-8.087 0-14.667-6.58-14.667-14.667 0-7.905 6.292-14.351 14.128-14.637a.639.639 0 01.392-.045l.087.019.175.039 1.739.389c.037.028.056.073.089.104.021.017.051.02.071.039.083.084.143.187.207.284.02.032.047.056.065.091.281.491.397 1.164.557 2.149.289 1.783.649 4.001 2.687 6.039s4.256 2.397 6.039 2.687c.587.096 1.077.18 1.492.297.204.057.385.127.549.207.021.011.04.023.061.033.144.076.272.169.384.275l.049.049c.109.113.203.249.279.404l.025.049c.168.369.26.849.26 1.527-.001 8.089-6.581 14.669-14.668 14.669z"/><path fill="var(--color2, #aa43a2)" d="M27.822 14.818c-1.885-.307-4.467-.726-6.83-3.089s-2.781-4.947-3.088-6.832c-.128-.79-.226-1.396-.375-1.687l-1.345-.302C8.849 3.005 2.91 8.996 2.91 16.357c0 7.422 6.036 13.46 13.455 13.46s13.454-6.038 13.454-13.46c0-.252-.027-.499-.044-.748-.108-.486-.499-.556-1.952-.791zm-17.419-3.694l-.476-.476-1.428 1.428a.67.67 0 01-.952 0 .675.675 0 010-.952l3.805-3.806a.674.674 0 01.951 0l1.902 1.903a.673.673 0 11-.951.952l-1.428-1.428-.951.952.476.477a.675.675 0 01-.476 1.149.665.665 0 01-.472-.197zm3.33 6.859a.674.674 0 01-.673-.673v-2.182l-.755.755a.674.674 0 01-.951-.952l1.889-1.89.027-.027 1.89-1.891a.674.674 0 01.951 0l.951.952a2.023 2.023 0 010 2.856 2.006 2.006 0 01-1.428.591c-.452 0-.88-.147-1.231-.419v2.206h.001a.673.673 0 01-.673.673zm4.283 2.658a.675.675 0 01-.476 1.149.674.674 0 01-.476-.197l-1.902-1.905a.675.675 0 010-.952l3.805-3.806a.674.674 0 01.951 0l1.902 1.903a.673.673 0 11-.951.952l-1.426-1.427-.951.952.476.476a.675.675 0 01-.476 1.149.674.674 0 01-.476-.197l-.476-.476-.951.952 1.429 1.428zm7.61.952a.674.674 0 01-.951 0l-1.428-1.428-.951.952.476.476a.675.675 0 01-.476 1.149.674.674 0 01-.476-.197l-.476-.476-.951.952 1.428 1.428a.675.675 0 01-.476 1.149.674.674 0 01-.476-.197l-1.902-1.903a.675.675 0 010-.952l3.805-3.808a.673.673 0 01.952 0l1.902 1.905a.672.672 0 01.001.952z"/></symbol><symbol id="icon-google" viewBox="0 0 32 32"><path fill="var(--color3, #167ee6)" d="M30.791 13.219l-13.052-.001c-.576 0-1.044.467-1.044 1.044v4.17c0 .576.467 1.043 1.043 1.043h7.35a9.814 9.814 0 01-4.224 4.95l3.134 5.426c5.028-2.908 8-8.01 8-13.721 0-.813-.06-1.395-.18-2.049a1.049 1.049 0 00-1.029-.862z"/><path fill="var(--color4, #12b347)" d="M16 25.738c-3.597 0-6.737-1.965-8.424-4.874l-5.425 3.127c2.761 4.785 7.933 8.007 13.849 8.007 2.902 0 5.641-.781 8-2.143v-.007l-3.134-5.426A9.663 9.663 0 0116 25.737z"/><path fill="var(--color5, #0f993e)" d="M24 29.855v-.007l-3.134-5.426A9.673 9.673 0 0116 25.737v6.261c2.902 0 5.641-.781 8-2.143z"/><path fill="var(--color6, #ffd500)" d="M6.261 15.998c0-1.773.484-3.432 1.315-4.865L2.151 8.006C.782 10.358 0 13.089 0 15.999s.781 5.641 2.151 7.993l5.425-3.127A9.67 9.67 0 016.261 16z"/><path fill="var(--color7, #ff4b26)" d="M16 6.261c2.346 0 4.5.833 6.183 2.22a1.04 1.04 0 001.399-.063l2.954-2.954a1.052 1.052 0 00-.06-1.538A15.953 15.953 0 0016 0C10.084 0 4.912 3.222 2.151 8.007l5.425 3.127C9.263 8.226 12.403 6.26 16 6.26z"/><path fill="var(--color8, #d93f21)" d="M22.183 8.481a1.04 1.04 0 001.399-.063l2.954-2.954a1.052 1.052 0 00-.06-1.538A15.953 15.953 0 0016 0v6.261c2.346 0 4.5.833 6.183 2.22z"/></symbol><symbol id="icon-hot" viewBox="0 0 24 32"><path fill="var(--color2, #aa43a2)" d="M9.683.265c-.18.18-.18.05.056 1.547.186 1.199.205 3.752.031 4.373-.218.77-.51 1.124-.926 1.124-.273 0-.733-.18-1.206-.472-.69-.422-.758-.398-1.405.46-1.131 1.497-1.914 3.156-2.268 4.796-.075.373-.112.795-.112 1.46 0 1 .093 1.553.379 2.323.081.217.137.41.118.429s-.186.044-.373.062c-.28.025-.404 0-.684-.137-.398-.199-.864-.696-1.15-1.224-.205-.385-.329-.491-.578-.491-.298 0-.41.174-.609.932-.597 2.33-.914 4.802-.845 6.523.205 4.957 3.045 8.349 7.955 9.505 2.051.485 4.835.559 6.992.186 3.337-.572 5.848-2.087 7.358-4.448.534-.832 1.063-2.162 1.286-3.23.447-2.187.273-5.467-.466-8.529-.286-1.211-.758-2.609-.932-2.783-.298-.298-.833-.068-.833.348 0 .298-.23.832-.479 1.124-.199.23-.715.621-.82.621-.025 0-.025-.534-.019-1.193.025-1.305-.037-2-.273-3.081-.951-4.311-3.953-7.703-8.788-9.964-.497-.23-.982-.422-1.075-.422a.515.515 0 00-.336.162zm.796 17.487c.416.224.609.422.851.888.137.267.162.398.162.845.006.485-.012.559-.205.919-.236.435-.435.621-.901.87-.267.137-.398.162-.845.162s-.578-.025-.845-.162c-.466-.248-.665-.435-.901-.87-.193-.36-.211-.435-.205-.919 0-.578.112-.888.454-1.311.186-.224.702-.54 1.025-.621.392-.106 1.007-.012 1.411.199zm5.867-.099a.464.464 0 01.155.354c0 .186-.342.541-4.12 4.317s-4.133 4.119-4.319 4.119a.52.52 0 01-.51-.509c0-.186.342-.541 4.12-4.317s4.133-4.119 4.319-4.119c.137 0 .255.05.354.155zm-.895 5.069c.416.224.609.422.851.888.137.267.162.398.162.845.006.485-.012.559-.205.919-.236.435-.435.621-.901.87-.267.137-.398.162-.845.162s-.578-.025-.845-.162c-.466-.249-.665-.435-.901-.87-.193-.36-.211-.435-.205-.919 0-.578.112-.888.454-1.311.186-.224.702-.541 1.025-.621.392-.106 1.007-.012 1.411.199z"/><path fill="var(--color2, #aa43a2)" d="M9.136 18.578c-.628.273-.777 1.106-.286 1.596.404.404.976.404 1.38 0 .771-.77-.093-2.031-1.094-1.596zm4.972 4.97c-.628.273-.777 1.106-.286 1.597.404.404.976.404 1.38 0 .771-.77-.093-2.031-1.094-1.597z"/></symbol><symbol id="icon-instagram" viewBox="0 0 31 32"><path fill="var(--color1, #fff)" opacity=".9" d="M20.242 3.839h-9.455c-4.351 0-7.879 3.499-7.879 7.814v9.377c0 4.315 3.528 7.814 7.879 7.814h9.455c4.351 0 7.879-3.499 7.879-7.814v-9.377c0-4.315-3.528-7.814-7.879-7.814zm5.516 17.19c0 3.016-2.474 5.47-5.515 5.47h-9.455c-3.041 0-5.515-2.454-5.515-5.47v-9.377c0-3.016 2.474-5.47 5.515-5.47h9.455c3.041 0 5.515 2.454 5.515 5.47v9.377z"/><path fill="var(--color1, #fff)" opacity=".9" d="M15.515 10.09c-3.481 0-6.303 2.799-6.303 6.251s2.822 6.251 6.303 6.251 6.303-2.799 6.303-6.251-2.822-6.251-6.303-6.251zm0 10.158c-2.171 0-3.939-1.753-3.939-3.907 0-2.155 1.768-3.907 3.939-3.907s3.939 1.752 3.939 3.907c0 2.154-1.768 3.907-3.939 3.907zm6.776-9.794c.464 0 .84-.373.84-.833s-.376-.833-.84-.833c-.464 0-.84.373-.84.833s.376.833.84.833z"/></symbol><symbol id="icon-location" viewBox="0 0 32 32"><path fill="var(--color2, #aa43a2)" d="M16 2.572c6.154 0 11.143 4.989 11.143 11.143 0 4.709-3.308 9.84-9.84 15.449a2.001 2.001 0 01-2.609-.002l-.432-.375C8.02 23.324 4.857 18.318 4.857 13.715 4.857 7.561 9.846 2.572 16 2.572zm0 1.714a9.43 9.43 0 00-9.429 9.429c0 4.002 2.912 8.614 8.816 13.779l.426.369c.052.044.118.069.186.069s.134-.025.186-.069c6.19-5.317 9.242-10.052 9.242-14.149a9.426 9.426 0 00-5.821-8.711 9.426 9.426 0 00-3.608-.718zm0 5.143A4.286 4.286 0 1116 18a4.286 4.286 0 010-8.571zm0 1.714a2.571 2.571 0 100 5.142 2.571 2.571 0 000-5.142z"/></symbol><symbol id="icon-pencil" viewBox="0 0 32 32"><path fill="var(--color1, #fff)" d="M.162.144C-.044.35-.057.638.143.838c.138.137.194.144 1.606.188 5.044.144 9.181.637 11.656 1.381 1.525.456 2.625 1.138 2.781 1.725.194.719-.606 1.681-2.438 2.931-2.537 1.731-3.5 2.831-3.5 4.006 0 1.313 1.338 2.231 4.45 3.037l.919.244-6.588 6.575-1.188.069c-2.219.131-3.781.469-4.994 1.081-1.35.681-2.275 1.781-2.644 3.137-.138.512-.131 1.5.006 2.069.238.944.969 2.156 1.744 2.894.406.381.638.425.888.169.281-.275.219-.469-.344-1.063-.506-.544-.975-1.256-1.181-1.813-.55-1.456-.063-3.075 1.206-4.019 1.038-.769 2.825-1.294 4.819-1.425l.625-.038-1.494 1.494-1.487 1.5-.744 3.213c-.406 1.769-.744 3.275-.744 3.356 0 .175.263.45.431.45.219 0 6.388-1.438 6.562-1.531.088-.044 1.963-1.887 4.162-4.094l4-4.006 1.281.044c1.363.044 3.012-.038 4.094-.2 1.775-.262 3.05-.819 3.819-1.669 1.275-1.4 1.169-2.944-.281-4.006-.337-.244-1.269-.725-1.738-.887l-.331-.119 2.994-3c1.731-1.738 3.056-3.119 3.15-3.281.325-.569.431-1.306.269-1.906-.163-.619-.337-.85-1.625-2.138-1.106-1.112-1.306-1.288-1.694-1.469-.406-.194-.487-.206-1.063-.206-.587 0-.656.013-1.063.212-.413.194-.744.512-5.219 4.981l-4.781 4.775-.781-.181c-2.469-.569-3.9-1.181-4.306-1.844-.469-.756.394-1.838 2.775-3.475 1.469-1.006 2.106-1.569 2.581-2.269.75-1.087.619-2.138-.375-3.006C14.627 1.205 9.414.237 1.833.024L.321-.02.158.143zM28.156 4.65c.231.106.619.456 1.475 1.325 1.306 1.325 1.413 1.494 1.35 2.112-.05.481-.169.675-.881 1.4l-.625.644-4.1-4.1.613-.612c.756-.769.994-.9 1.575-.912.175-.006.4.05.594.144zm-.25 7.037l-.844.844-4.094-4.094 1.687-1.688 4.094 4.094-.844.844zm-3.594-.468l2.031 2.031-7.625 7.625c-4.194 4.194-7.644 7.625-7.663 7.625-.025 0-.106-.344-.187-.769-.206-1.056-.187-1.044-1.244-1.044h-.813v-.812c0-1.056.012-1.044-1.05-1.244-.419-.081-.763-.163-.763-.188 0-.044 15.206-15.256 15.25-15.256.019 0 .944.913 2.063 2.031zm1.344 5.45c1.175.475 1.794.938 2.006 1.488.131.35.094.675-.131 1.137-.475.969-1.725 1.637-3.606 1.925-.8.119-3.538.256-3.95.194l-.306-.05 2.525-2.525c2.056-2.056 2.544-2.519 2.65-2.487.069.025.438.163.812.319zM7.05 25.506l.763.144v.825c0 .787.006.837.15 1.006.15.175.163.175 1.012.206l.863.031.169.844c.162.788.162.85.069.95-.063.056-.512.194-1.044.319l-.938.219-1.325-1.319c-.725-.719-1.313-1.344-1.3-1.381s.112-.463.219-.944c.206-.881.313-1.119.494-1.069.056.019.444.094.869.169zm-.281 4.819c-.175.075-2.031.494-2.063.462-.025-.019.375-1.863.456-2.094.019-.063.313.187.875.75.688.688.819.844.731.881z"/></symbol><symbol id="icon-people_plus" viewBox="0 0 32 32"><path fill="var(--color2, #aa43a2)" d="M30.09 18.6a6.568 6.568 0 00-4.061-1.912 6.463 6.463 0 002.154-4.819 6.487 6.487 0 00-6.489-6.488 6.487 6.487 0 00-6.47 6.013c3.046 1.318 5.183 4.353 5.183 7.877a8.567 8.567 0 01-.837 3.686 8.65 8.65 0 012.137 1.576 8.723 8.723 0 012.517 6.17l-.001.047-.001.04-.057 1.085h7.772l.064-8.596a6.561 6.561 0 00-1.91-4.679z"/><path fill="var(--color2, #aa43a2)" d="M16.163 24.092a6.463 6.463 0 002.156-4.819 6.49 6.49 0 10-12.98 0c0 1.912.832 3.626 2.15 4.814-3.374.261-6.039 3.056-6.064 6.496l-.064 1.292H22.07l.064-1.195a6.564 6.564 0 00-1.911-4.678 6.563 6.563 0 00-4.061-1.91zM4.186 7.929v2.411a1.81 1.81 0 003.62 0V7.929h2.408a1.81 1.81 0 000-3.62H7.806V1.934a1.81 1.81 0 00-3.62 0v2.374H1.81a1.81 1.81 0 000 3.62l2.376.001z"/></symbol><symbol id="icon-procent" viewBox="0 0 32 32"><path fill="var(--color2, #aa43a2)" d="M32 16c0 8.837-7.163 16-16 16S0 24.837 0 16 7.163 0 16 0s16 7.163 16 16z"/><path fill="var(--color1, #fff)" d="M20.754 8.065c-.139.077-1.481 1.982-9.3 13.234-.924 1.329-1.272 1.875-1.272 2.006 0 .522.576.855 1.064.617.158-.083.848-1.056 9.319-13.24 1.253-1.798 1.279-1.846 1.247-2.101-.038-.344-.253-.546-.62-.576-.171-.018-.342.006-.437.059zm-9.125 1.418c-.668.081-1.362.513-1.742 1.08-.331.492-.456.961-.429 1.588.022.459.038.54.25.961.782 1.572 2.855 1.923 4.082.691a2.533 2.533 0 00-.668-4.083c-.201-.103-.483-.2-.624-.216s-.315-.038-.391-.049a3.605 3.605 0 00-.478.027zm.755 1.269c.374.108.771.497.863.843.103.367.049.805-.141 1.102-.537.87-1.867.794-2.301-.124a1.34 1.34 0 01.896-1.858c.255-.059.369-.054.684.038zm6.242 7.509a2.483 2.483 0 00-1.146.673c-1.602 1.6-.478 4.344 1.781 4.339 1.043 0 1.868-.515 2.324-1.443.196-.385.212-.461.228-.976.027-.624-.076-1.047-.364-1.491-.326-.515-.999-.992-1.586-1.128-.337-.081-.891-.065-1.238.027zm1.102 1.226c.136.043.32.168.478.32.842.841.261 2.24-.934 2.229-.532 0-.956-.266-1.173-.743-.5-1.068.472-2.148 1.629-1.806z"/></symbol><symbol id="icon-telegram" viewBox="0 0 31 32"><path fill="var(--color1, #fff)" opacity=".9" d="M28.312 6.355c-.315-.382-.787-.593-1.329-.593a2.64 2.64 0 00-.928.183l-21.84 8.268c-1.159.439-1.315 1.097-1.305 1.45s.204 1.002 1.386 1.375l.021.006 3.063.869 14.917-7.558a.758.758 0 011.017.327c.149.29.089.63-.123.854l.001.001-8.294 8.74-.237.951 7.066 5.643.011.008c.452.348.945.531 1.427.531.941 0 1.691-.691 1.909-1.76l3.578-17.524c.143-.703.023-1.333-.339-1.772z"/><path fill="var(--color1, #fff)" opacity=".9" d="M13.477 19.728a.746.746 0 01.183-.334l5.442-5.735-10.099 5.117 2.293 6.504c.131.371.325.686.566.933l1.614-6.484zm-.207 7.086c.545-.005 1.081-.233 1.55-.661l1.678-1.532-2.237-1.786-.991 3.979z"/></symbol><symbol id="icon-youtube" viewBox="0 0 31 32"><path fill="var(--color1, #fff)" d="M29.712 7.801c-.842-1.485-1.755-1.758-3.615-1.862-1.858-.125-6.53-.177-10.577-.177-4.055 0-8.729.052-10.585.175-1.856.106-2.771.377-3.621 1.864C.447 9.284.001 11.838.001 16.335v.016c0 4.478.446 7.051 1.313 8.519.849 1.485 1.763 1.754 3.619 1.879 1.858.108 6.532.171 10.587.171 4.048 0 8.72-.063 10.579-.169 1.86-.125 2.773-.394 3.615-1.879.875-1.468 1.317-4.041 1.317-8.519v-.016c0-4.499-.442-7.053-1.319-8.536z"/><path fill="var(--color9, #263238)" d="M11.636 22.111v-11.54l9.697 5.77-9.697 5.77z"/></symbol><symbol id="icon-logo"><svg xmlns="http://www.w3.org/2000/svg" width="143" height="37" fill="none"><path fill="#FEC830" d="M53.804 7.053a2 2 0 011.88-2.129l82.685-4.81a2 2 0 012.111 1.849l2.006 26.973a2 2 0 01-1.872 2.145l-82.883 5.096a2 2 0 01-2.119-1.864l-1.808-27.26z"/><path fill="#000" d="M3.91 34.439a2.007 2.007 0 01-2.122-1.903C1.424 25.368.481 10.893.132 5.598a1.992 1.992 0 011.879-2.119L45.043.925a2 2 0 011.701.773L56.922 14.87a2 2 0 01.123 2.267l-8.507 13.89a2 2 0 01-1.592.953L3.91 34.439z"/><path fill="#fff" d="M11.125 18.712a7.187 7.187 0 01.385-2.91 7.085 7.085 0 011.436-2.432 7.45 7.45 0 012.335-1.71 8.179 8.179 0 013.017-.775c1.203-.08 2.278.025 3.226.314.97.3 1.878.767 2.683 1.38l-2.128 2.906a6.064 6.064 0 00-1.674-.876 4.893 4.893 0 00-1.848-.2 3.447 3.447 0 00-1.4.373 3.412 3.412 0 00-1.118.914c-.652.791-.941 1.727-.867 2.808.078 1.151.506 2.077 1.283 2.777.777.7 1.728 1.012 2.855.936.92-.062 1.668-.317 2.243-.764l-.12-1.77-2.832.19-.193-2.826 6.56-.439.434 6.372c-1.685 1.56-3.694 2.417-6.024 2.57-1.465.1-2.808-.124-4.03-.668a6.967 6.967 0 01-2.955-2.432c-.75-1.079-1.172-2.325-1.268-3.738zM28.6 17.564c-.07-.98.064-1.964.396-2.89a7.3 7.3 0 011.446-2.445 7.532 7.532 0 012.338-1.73 8.323 8.323 0 016.091-.411c.929.295 1.79.769 2.533 1.393a7.175 7.175 0 011.742 2.227c.45.882.713 1.845.776 2.831a7.09 7.09 0 01-.396 2.891 7.265 7.265 0 01-1.441 2.447 7.491 7.491 0 01-2.332 1.726 8 8 0 01-3.004.784c-1.437.096-2.765-.143-3.983-.716a7.172 7.172 0 01-4.166-6.107zm4.044-.27c.07 1.044.476 1.917 1.216 2.62.74.703 1.636 1.019 2.69.948 1.067-.07 1.913-.498 2.538-1.283.625-.784.901-1.708.829-2.771-.071-1.045-.476-1.918-1.215-2.621-.74-.703-1.644-1.019-2.713-.947-1.054.07-1.893.498-2.518 1.282-.625.784-.901 1.708-.827 2.772zm33.562 10.089l-.963-14.105 3.945-.263.966 14.105-3.948.263zm5.248-11.072l-.234-3.434 12.502-.836.234 3.434-4.282.285.729 10.675-3.945.263-.729-10.675-4.275.288zm12.237 4.439a6.077 6.077 0 01.26-2.262 5.51 5.51 0 011.014-1.89 5.293 5.293 0 011.682-1.33 5.623 5.623 0 012.21-.597c.92-.061 1.753.043 2.498.313a4.561 4.561 0 011.838 1.194 5.926 5.926 0 011.138 1.827c.284.726.452 1.492.498 2.27.025.347.036.61.035.788l-7.374.492c.193.587.508 1.023.945 1.307.437.284.96.405 1.567.364.858-.06 1.646-.492 2.366-1.299l2.258 1.625c-1.074 1.54-2.62 2.377-4.641 2.512-1.146.078-2.181-.09-3.106-.503a5.153 5.153 0 01-2.228-1.867c-.563-.834-.883-1.816-.96-2.945zm3.606-1.15l3.826-.257c-.115-.605-.353-1.073-.715-1.404-.361-.33-.804-.478-1.328-.444a1.679 1.679 0 00-1.22.62c-.317.38-.505.874-.563 1.484zm8.911.313a6.091 6.091 0 01.26-2.262c.21-.69.554-1.332 1.013-1.891a5.307 5.307 0 011.68-1.329 5.615 5.615 0 012.212-.596c.921-.062 1.753.042 2.498.312a4.552 4.552 0 011.838 1.192 5.908 5.908 0 011.138 1.826 7.43 7.43 0 01.499 2.273c.024.348.035.61.034.788l-7.373.493c.193.587.508 1.022.945 1.306.437.284.959.405 1.567.365.861-.058 1.65-.492 2.367-1.3l2.258 1.624c-1.074 1.54-2.621 2.378-4.641 2.513-1.147.077-2.182-.09-3.106-.503a5.156 5.156 0 01-2.228-1.867c-.564-.835-.884-1.816-.961-2.944zm3.606-1.151l3.825-.256c-.115-.605-.353-1.073-.715-1.404-.362-.331-.804-.48-1.328-.444a1.66 1.66 0 00-1.22.62c-.317.38-.505.875-.563 1.484zm9.729 5.724l-.743-10.9 3.865-.26.106 1.545c.862-1.257 1.92-1.928 3.173-2.011 1.166-.079 2.106.217 2.821.888.715.67 1.115 1.63 1.2 2.875l.486 7.133-3.865.258-.406-5.888c-.039-.582-.211-1.023-.515-1.32-.305-.299-.692-.433-1.164-.402-.485.033-.867.22-1.144.56-.276.34-.395.798-.357 1.374l.402 5.888-3.859.26zm12.171-2.234l1.292-2.416c1.328.725 2.618 1.045 3.87.962.649-.045.96-.268.932-.669-.013-.191-.156-.34-.429-.447-.273-.107-.743-.221-1.401-.344-.5-.094-.926-.187-1.278-.28a6.848 6.848 0 01-1.084-.387 3.435 3.435 0 01-.902-.565 2.646 2.646 0 01-.589-.806 2.951 2.951 0 01-.286-1.124c-.079-1.155.266-2.081 1.038-2.78.771-.699 1.812-1.092 3.124-1.18a8.617 8.617 0 012.43.185 7.9 7.9 0 012.203.823l-1.156 2.518a9.808 9.808 0 00-1.778-.597c-.595-.137-1.111-.19-1.548-.16-.292.019-.51.081-.656.187a.445.445 0 00-.203.417c.013.192.155.34.425.447.27.106.746.233 1.429.38.499.101.925.2 1.278.3.371.105.734.24 1.085.4.328.14.633.33.902.564.243.226.443.494.588.792.168.341.264.712.284 1.09.081 1.192-.26 2.133-1.025 2.826-.764.693-1.836 1.085-3.214 1.177-1.968.13-3.745-.307-5.331-1.313z"/></svg></symbol><symbol id="icon-logo-small"><path fill="#FEC830" d="M30.236 4.84a2 2 0 011.88-2.13L76.743.114a2 2 0 012.11 1.849l.996 13.38a2 2 0 01-1.872 2.144l-44.726 2.75a2 2 0 01-2.119-1.864L30.236 4.84z"/><path d="M3.083 19.265a2.02 2.02 0 01-2.127-1.91C.748 13.521.342 7.225.132 4.024a1.998 1.998 0 011.879-2.125L24.8.546a2 2 0 011.7.774l5.055 6.54a2 2 0 01.123 2.268l-4.215 6.883a2 2 0 01-1.591.952L3.083 19.265z"/><path fill="#fff" d="M6.24 10.495a4.032 4.032 0 01.216-1.633 3.98 3.98 0 01.805-1.363 4.178 4.178 0 011.31-.96 4.595 4.595 0 011.692-.434c.675-.045 1.278.014 1.81.176a4.85 4.85 0 011.504.774l-1.193 1.63a3.402 3.402 0 00-.94-.492 2.744 2.744 0 00-1.036-.112 1.934 1.934 0 00-1.412.722c-.366.444-.528.969-.487 1.575.044.646.284 1.165.72 1.558.436.392.97.567 1.601.525.516-.035.936-.178 1.259-.429l-.068-.993-1.589.107-.107-1.585 3.678-.246.244 3.573c-.945.875-2.071 1.356-3.379 1.442-.82.056-1.574-.07-2.26-.375a3.906 3.906 0 01-1.657-1.364c-.42-.605-.657-1.304-.711-2.096zm9.8-.644a3.95 3.95 0 01.223-1.62 4.09 4.09 0 01.81-1.372c.37-.405.815-.735 1.312-.97a4.668 4.668 0 013.416-.231 4.186 4.186 0 011.421.781c.406.349.738.773.977 1.25.252.494.4 1.034.435 1.587a3.98 3.98 0 01-.222 1.622c-.176.505-.45.972-.808 1.372a4.203 4.203 0 01-1.308.968c-.527.255-1.1.405-1.685.44a4.46 4.46 0 01-2.234-.402 4.022 4.022 0 01-2.337-3.425zm2.27-.151c.04.586.267 1.076.682 1.47.414.394.917.572 1.508.532.599-.04 1.073-.28 1.424-.72.35-.44.506-.958.465-1.554a2.16 2.16 0 00-.682-1.47c-.414-.394-.921-.571-1.521-.531-.591.04-1.062.279-1.413.719-.35.44-.505.958-.463 1.554zm18.823 5.658l-.54-7.911 2.212-.148.542 7.911-2.214.148zm2.944-6.21l-.132-1.926 7.012-.468.131 1.925-2.401.16.409 5.987-2.213.148-.409-5.987-2.397.161zm6.863 2.489a3.407 3.407 0 01.146-1.268c.118-.386.31-.747.568-1.06.26-.31.58-.563.943-.745.386-.196.808-.31 1.24-.335.516-.035.984.024 1.401.175.394.137.748.367 1.031.67.274.3.49.647.638 1.024.16.408.254.837.28 1.273.014.195.02.343.02.442l-4.136.277c.108.329.285.573.53.732.245.16.538.228.879.205.48-.034.923-.276 1.327-.729l1.266.911c-.602.864-1.47 1.334-2.603 1.41-.643.043-1.224-.051-1.742-.283a2.89 2.89 0 01-1.25-1.047c-.316-.468-.495-1.018-.538-1.652zm2.022-.644l2.146-.144c-.064-.34-.198-.602-.4-.787a.963.963 0 00-.746-.25.942.942 0 00-.684.348c-.178.213-.283.49-.316.833zm4.998.175a3.418 3.418 0 01.145-1.268c.118-.387.311-.747.568-1.061.26-.31.58-.563.943-.745a3.15 3.15 0 011.24-.335c.517-.034.984.024 1.401.175.394.136.748.366 1.032.669.273.3.49.647.638 1.024.16.408.254.838.28 1.275.013.195.02.342.018.442l-4.135.277c.108.329.285.573.53.732.245.16.538.227.88.205.482-.033.925-.276 1.327-.73l1.266.911c-.602.864-1.47 1.334-2.603 1.41-.643.043-1.224-.051-1.742-.282a2.892 2.892 0 01-1.25-1.048c-.316-.468-.495-1.018-.539-1.65zm2.022-.645l2.145-.144c-.064-.339-.198-.601-.4-.787a.962.962 0 00-.745-.25.94.94 0 00-.685.348c-.178.214-.283.491-.315.833zm5.456 3.21l-.416-6.114 2.168-.145.059.866c.483-.705 1.076-1.08 1.78-1.128.653-.044 1.18.123 1.582.499.4.376.625.913.673 1.612l.272 4.001-2.168.145-.227-3.303c-.022-.326-.119-.573-.29-.74a.812.812 0 00-.652-.226.863.863 0 00-.641.314c-.156.191-.222.448-.2.771l.225 3.303-2.165.145zm6.827-1.253l.725-1.354c.744.406 1.468.586 2.17.539.364-.025.538-.15.523-.375-.007-.107-.088-.191-.241-.251s-.417-.124-.786-.193c-.28-.053-.519-.105-.716-.156a3.836 3.836 0 01-.608-.218 1.936 1.936 0 01-.506-.317 1.484 1.484 0 01-.33-.452 1.66 1.66 0 01-.161-.63c-.045-.648.15-1.168.582-1.56.432-.391 1.016-.612 1.752-.66.457-.031.916.004 1.363.103.433.091.85.247 1.236.461l-.649 1.412a5.499 5.499 0 00-.997-.335 3.044 3.044 0 00-.868-.09c-.164.011-.286.046-.368.106a.254.254 0 00-.114.233c.007.108.087.192.238.251.152.06.419.13.802.213.28.057.519.113.717.168.208.06.411.135.608.225.184.079.355.186.506.316.137.127.248.278.33.444.094.192.148.4.16.612.045.668-.147 1.196-.575 1.585-.43.388-1.03.608-1.804.66-1.103.073-2.1-.172-2.99-.737z"/></symbol><symbol id="icon-menu"><path fill="#AA43A2" d="M6.667 30h26.666C34.25 30 35 29.25 35 28.333c0-.916-.75-1.666-1.667-1.666H6.667c-.917 0-1.667.75-1.667 1.666C5 29.25 5.75 30 6.667 30zm0-8.333h26.666c.917 0 1.667-.75 1.667-1.667s-.75-1.667-1.667-1.667H6.667C5.75 18.333 5 19.083 5 20s.75 1.667 1.667 1.667zM5 11.667c0 .916.75 1.666 1.667 1.666h26.666c.917 0 1.667-.75 1.667-1.666C35 10.75 34.25 10 33.333 10H6.667C5.75 10 5 10.75 5 11.667z"/></symbol><symbol id="icon-logo-big"><path fill="#FEC830" d="M53.804 7.053a2 2 0 011.88-2.129l82.685-4.81a2 2 0 012.111 1.849l2.006 26.973a2 2 0 01-1.872 2.145l-82.883 5.096a2 2 0 01-2.119-1.864l-1.808-27.26z"/><path d="M3.91 34.439a2.007 2.007 0 01-2.122-1.903C1.424 25.368.481 10.893.132 5.598a1.992 1.992 0 011.879-2.119L45.043.925a2 2 0 011.701.773L56.922 14.87a2 2 0 01.123 2.267l-8.507 13.89a2 2 0 01-1.592.953L3.91 34.439z"/><path fill="#fff" d="M11.125 18.712a7.187 7.187 0 01.385-2.91 7.085 7.085 0 011.436-2.432 7.45 7.45 0 012.335-1.71 8.179 8.179 0 013.017-.775c1.203-.08 2.278.025 3.226.314.97.3 1.878.767 2.683 1.38l-2.128 2.906a6.064 6.064 0 00-1.674-.876 4.893 4.893 0 00-1.848-.2 3.447 3.447 0 00-1.4.373 3.412 3.412 0 00-1.118.914c-.652.791-.941 1.727-.867 2.808.078 1.151.506 2.077 1.283 2.777.777.7 1.728 1.012 2.855.936.92-.062 1.668-.317 2.243-.764l-.12-1.77-2.832.19-.193-2.826 6.56-.439.434 6.372c-1.685 1.56-3.694 2.417-6.024 2.57-1.465.1-2.808-.124-4.03-.668a6.967 6.967 0 01-2.955-2.432c-.75-1.079-1.172-2.325-1.268-3.738zM28.6 17.564c-.07-.98.064-1.964.396-2.89a7.3 7.3 0 011.446-2.445 7.532 7.532 0 012.338-1.73 8.323 8.323 0 016.091-.411c.929.295 1.79.769 2.533 1.393a7.175 7.175 0 011.742 2.227c.45.882.713 1.845.776 2.831a7.09 7.09 0 01-.396 2.891 7.265 7.265 0 01-1.441 2.447 7.491 7.491 0 01-2.332 1.726 8 8 0 01-3.004.784c-1.437.096-2.765-.143-3.983-.716a7.172 7.172 0 01-4.166-6.107zm4.044-.27c.07 1.044.476 1.917 1.216 2.62.74.703 1.636 1.019 2.69.948 1.067-.07 1.913-.498 2.538-1.283.625-.784.901-1.708.829-2.771-.071-1.045-.476-1.918-1.215-2.621-.74-.703-1.644-1.019-2.713-.947-1.054.07-1.893.498-2.518 1.282-.625.784-.901 1.708-.827 2.772zm33.562 10.089l-.963-14.105 3.945-.263.966 14.105-3.948.263zm5.248-11.072l-.234-3.434 12.502-.836.234 3.434-4.282.285.729 10.675-3.945.263-.729-10.675-4.275.288zm12.237 4.439a6.077 6.077 0 01.26-2.262 5.51 5.51 0 011.014-1.89 5.293 5.293 0 011.682-1.33 5.623 5.623 0 012.21-.597c.92-.061 1.753.043 2.498.313a4.561 4.561 0 011.838 1.194 5.926 5.926 0 011.138 1.827c.284.726.452 1.492.498 2.27.025.347.036.61.035.788l-7.374.492c.193.587.508 1.023.945 1.307.437.284.96.405 1.567.364.858-.06 1.646-.492 2.366-1.299l2.258 1.625c-1.074 1.54-2.62 2.377-4.641 2.512-1.146.078-2.181-.09-3.106-.503a5.153 5.153 0 01-2.228-1.867c-.563-.834-.883-1.816-.96-2.945zm3.606-1.15l3.826-.257c-.115-.605-.353-1.073-.715-1.404-.361-.33-.804-.478-1.328-.444a1.679 1.679 0 00-1.22.62c-.317.38-.505.874-.563 1.484zm8.911.313a6.091 6.091 0 01.26-2.262c.21-.69.554-1.332 1.013-1.891a5.307 5.307 0 011.68-1.329 5.615 5.615 0 012.212-.596c.921-.062 1.753.042 2.498.312a4.552 4.552 0 011.838 1.192 5.908 5.908 0 011.138 1.826 7.43 7.43 0 01.499 2.273c.024.348.035.61.034.788l-7.373.493c.193.587.508 1.022.945 1.306.437.284.959.405 1.567.365.861-.058 1.65-.492 2.367-1.3l2.258 1.624c-1.074 1.54-2.621 2.378-4.641 2.513-1.147.077-2.182-.09-3.106-.503a5.156 5.156 0 01-2.228-1.867c-.564-.835-.884-1.816-.961-2.944zm3.606-1.151l3.825-.256c-.115-.605-.353-1.073-.715-1.404-.362-.331-.804-.48-1.328-.444a1.66 1.66 0 00-1.22.62c-.317.38-.505.875-.563 1.484zm9.729 5.724l-.743-10.9 3.865-.26.106 1.545c.862-1.257 1.92-1.928 3.173-2.011 1.166-.079 2.106.217 2.821.888.715.67 1.115 1.63 1.2 2.875l.486 7.133-3.865.258-.406-5.888c-.039-.582-.211-1.023-.515-1.32-.305-.299-.692-.433-1.164-.402-.485.033-.867.22-1.144.56-.276.34-.395.798-.357 1.374l.402 5.888-3.859.26zm12.171-2.234l1.292-2.416c1.328.725 2.618 1.045 3.87.962.649-.045.96-.268.932-.669-.013-.191-.156-.34-.429-.447-.273-.107-.743-.221-1.401-.344-.5-.094-.926-.187-1.278-.28a6.848 6.848 0 01-1.084-.387 3.435 3.435 0 01-.902-.565 2.646 2.646 0 01-.589-.806 2.951 2.951 0 01-.286-1.124c-.079-1.155.266-2.081 1.038-2.78.771-.699 1.812-1.092 3.124-1.18a8.617 8.617 0 012.43.185 7.9 7.9 0 012.203.823l-1.156 2.518a9.808 9.808 0 00-1.778-.597c-.595-.137-1.111-.19-1.548-.16-.292.019-.51.081-.656.187a.445.445 0 00-.203.417c.013.192.155.34.425.447.27.106.746.233 1.429.38.499.101.925.2 1.278.3.371.105.734.24 1.085.4.328.14.633.331.902.564.243.226.443.494.588.792.168.341.264.712.284 1.09.081 1.192-.26 2.133-1.025 2.826-.764.693-1.836 1.085-3.214 1.177-1.968.13-3.745-.307-5.331-1.313z"/></symbol><symbol id="icon-full-star"><path fill="#FFCD2B" d="M9.944 6.4L8 0 6.056 6.4H0l4.944 3.528L3.064 16 8 12.248 12.944 16l-1.88-6.072L16 6.4H9.944z"/><defs><linearGradient id="a" x1="11.635" x2="11.413" y1="0" y2="15.998" gradientUnits="userSpaceOnUse"><stop stop-color="#FFCD2B"/><stop offset=".13" stop-color="#FFD531"/><stop offset=".247" stop-color="#FFD832"/><stop offset=".615" stop-color="#FFD72D"/><stop offset=".834" stop-color="#FED22B"/><stop offset="1" stop-color="#FFD42D"/></linearGradient></defs></symbol><symbol id="icon-star-50"><path stroke="#FFCD2B" stroke-width=".5" d="M9.705 6.473l.054.177h5.461l-4.3 3.075-.147.105.053.172 1.65 5.328-4.326-3.28-.15-.116-.151.115-4.316 3.28 1.65-5.327.053-.173-.147-.104L.781 6.65h5.46l.054-.177L8 .86l1.705 5.613z"/><path fill="#FFCD2B" d="M8 8.5V0L6.056 6.4H0l4.944 3.528L3.064 16 8 12.248V8.5z"/><defs><linearGradient id="a" x1="0" x2="16.999" y1="9.5" y2="9.651" gradientUnits="userSpaceOnUse"><stop offset=".429" stop-color="#FFCD2B"/><stop offset="1" stop-color="#FFD42D"/></linearGradient></defs></symbol></defs></svg>