<svg aria-hidden="true" style="position:absolute;width:0;height:0" xmlns="http://www.w3.org/2000/svg" overflow="hidden"><defs><symbol id="icon-svg-ok" viewBox="0 0 31 32"><path fill="var(--color1, #777376)" d="M30.769 16.429c0 8.486-6.879 15.365-15.365 15.365S.039 24.915.039 16.429 6.918 1.064 15.404 1.064s15.365 6.879 15.365 15.365z"/><path fill="var(--color2, #fff)" d="M12.111 21.038l-3.842-3.841a1.078 1.078 0 00-1.536 0 1.078 1.078 0 000 1.536l4.598 4.6c.428.427 1.12.427 1.547 0L24.513 11.71a1.078 1.078 0 000-1.536 1.078 1.078 0 00-1.536 0L12.11 21.038z"/></symbol><symbol id="icon-svg-ok-color" viewBox="0 0 31 32"><path fill="var(--color3, #78b55a)" d="M30.769 16.429c0 8.486-6.879 15.365-15.365 15.365S.039 24.915.039 16.429 6.918 1.064 15.404 1.064s15.365 6.879 15.365 15.365z"/><path fill="var(--color2, #fff)" d="M12.112 21.038L8.27 17.197a1.078 1.078 0 00-1.536 0 1.078 1.078 0 000 1.536l4.598 4.6c.428.427 1.12.427 1.547 0L24.514 11.71a1.078 1.078 0 000-1.536 1.078 1.078 0 00-1.536 0L12.111 21.038z"/></symbol></defs></svg>