<svg width="12" height="31" fill="none" xmlns="http://www.w3.org/2000/svg"><path d="M5.47 30.53a.75.75 0 001.06 0l4.773-4.773a.75.75 0 00-1.06-1.06L6 28.939l-4.243-4.242a.75.75 0 10-1.06 1.06L5.47 30.53zM5.25 1.406a.75.75 0 101.5 0h-1.5zm1.5 4.688a.75.75 0 10-1.5 0h1.5zm-1.5 2.812a.75.75 0 001.5 0h-1.5zm1.5 4.688a.75.75 0 10-1.5 0h1.5zm-1.5 2.812a.75.75 0 001.5 0h-1.5zm1.5 4.688a.75.75 0 10-1.5 0h1.5zm-1.5 2.812a.75.75 0 001.5 0h-1.5zm1.5 4.688a.75.75 0 10-1.5 0h1.5zM5.25 0v1.406h1.5V0h-1.5zm0 6.094v2.812h1.5V6.094h-1.5zm0 7.5v2.812h1.5v-2.812h-1.5zm0 7.5v2.812h1.5v-2.812h-1.5zm0 7.5V30h1.5v-1.406h-1.5z" fill="#8C8C8C"/></svg>