<svg width="159" height="40" fill="none" xmlns="http://www.w3.org/2000/svg"><path d="M61.784 4.1l.242 1.226-.242-1.227zm96.086 25.037a1.25 1.25 0 001.013-1.45l-1.959-11.077a1.25 1.25 0 00-2.462.435l1.741 9.847-9.847 1.742a1.25 1.25 0 10.436 2.462l11.078-1.96zM3.573 37.992a1.25 1.25 0 00-1.804-1.73l1.804 1.73zm2.556-6.041a1.25 1.25 0 001.71 1.823l-1.71-1.823zm4.674-.861a1.25 1.25 0 00-1.646-1.882l1.646 1.882zm3.072-5.797a1.25 1.25 0 001.546 1.965l-1.546-1.965zm4.731-.455a1.25 1.25 0 10-1.478-2.016l1.478 2.016zm3.557-5.51a1.25 1.25 0 001.373 2.09l-1.373-2.09zm4.755-.05a1.25 1.25 0 10-1.3-2.135l1.3 2.135zm4.014-5.187a1.25 1.25 0 101.189 2.2l-1.189-2.2zm4.74.359a1.25 1.25 0 00-1.113-2.24l1.112 2.24zm4.447-4.821a1.25 1.25 0 10.993 2.294l-.993-2.294zm4.691.771a1.25 1.25 0 10-.91-2.328l.91 2.328zm4.863-4.403a1.25 1.25 0 10.78 2.376l-.78-2.376zM54.271 7.2a1.25 1.25 0 10-.687-2.403l.687 2.403zm5.266-3.91a1.25 1.25 0 10.537 2.442l-.537-2.442zm4.465 1.66a1.25 1.25 0 10-.445-2.46l.445 2.46zm5.65-3.403a1.25 1.25 0 00.317 2.48l-.317-2.48zm4.31 2.042a1.25 1.25 0 00-.225-2.49l.226 2.49zM79.894.717a1.25 1.25 0 00.084 2.498L79.893.717zm4.11 2.441a1.25 1.25 0 10.014-2.5l-.013 2.5zM90.18.868a1.25 1.25 0 10-.157 2.495L90.18.868zm3.847 2.825a1.25 1.25 0 10.253-2.487l-.253 2.487zm6.373-1.69a1.25 1.25 0 10-.392 2.47l.392-2.47zm3.574 3.175a1.25 1.25 0 00.483-2.453l-.483 2.453zm6.498-1.099a1.25 1.25 0 10-.613 2.424l.613-2.424zm3.269 3.478a1.25 1.25 0 00.697-2.4l-.697 2.4zm6.57-.536a1.25 1.25 0 00-.815 2.363l.815-2.363zm2.975 3.738a1.25 1.25 0 10.89-2.336l-.89 2.336zm6.583-.018a1.25 1.25 0 00-.995 2.293l.995-2.293zm2.68 3.95a1.25 1.25 0 101.06-2.263l-1.06 2.264zm6.586.467a1.25 1.25 0 00-1.153 2.218l1.153-2.218zm2.405 4.128a1.25 1.25 0 101.21-2.188l-1.21 2.188zm6.519.882a1.25 1.25 0 00-1.291 2.141l1.291-2.14zm2.144 4.268a1.25 1.25 0 001.341-2.11l-1.341 2.11zm6.467 1.27a1.25 1.25 0 00-1.411 2.064l1.411-2.063zM2.201 39.45c.454-.49.912-.976 1.372-1.456l-1.804-1.73c-.47.49-.938.986-1.402 1.488L2.2 39.449zm5.638-5.674c.977-.916 1.966-1.811 2.964-2.684L9.157 29.21a115.64 115.64 0 00-3.028 2.743l1.71 1.823zm7.582-6.516c1.054-.83 2.116-1.636 3.185-2.42l-1.478-2.016c-1.092.8-2.177 1.624-3.253 2.47l1.546 1.966zm8.115-5.84c1.122-.738 2.25-1.45 3.381-2.14l-1.3-2.135a119.645 119.645 0 00-3.454 2.184l1.373 2.09zm8.585-5.127a115.712 115.712 0 013.55-1.841l-1.112-2.24c-1.21.602-2.42 1.229-3.627 1.881l1.189 2.2zm8.99-4.368a111.467 111.467 0 013.699-1.523l-.91-2.328c-1.257.491-2.518 1.01-3.781 1.557l.993 2.294zm9.341-3.55c1.281-.42 2.555-.811 3.82-1.173l-.688-2.403c-1.295.37-2.6.77-3.911 1.2l.78 2.376zm9.622-2.641c.654-.144 1.305-.28 1.952-.407l-.484-2.453a91.91 91.91 0 00-2.005.418l.537 2.442zm1.952-.407c.643-.127 1.302-.252 1.976-.374l-.445-2.46c-.688.124-1.36.252-2.015.381l.484 2.453zm7.943-1.299a109.07 109.07 0 013.994-.437l-.226-2.49c-1.406.128-2.768.279-4.085.448l.317 2.48zm10.008-.812c1.311-.044 2.653-.064 4.027-.057l.013-2.5c-1.407-.007-2.781.014-4.124.059l.084 2.498zm10.046.148c1.31.083 2.646.192 4.004.33l.253-2.487a107.506 107.506 0 00-4.1-.338l-.157 2.495zm9.985 1.11c1.302.206 2.625.441 3.966.705l.483-2.453c-1.372-.27-2.724-.51-4.057-.722l-.392 2.47zm9.851 2.03c1.278.323 2.573.674 3.882 1.054l.697-2.4a118.812 118.812 0 00-3.966-1.078l-.613 2.424zm9.637 2.881c1.25.431 2.514.89 3.79 1.375l.89-2.336c-1.301-.496-2.59-.963-3.865-1.402l-.815 2.363zm9.378 3.65c1.214.527 2.439 1.079 3.675 1.658l1.06-2.264a142.736 142.736 0 00-3.74-1.687l-.995 2.293zm9.108 4.342c1.177.612 2.363 1.248 3.558 1.91l1.21-2.188a154.889 154.889 0 00-3.615-1.94l-1.153 2.218zm8.786 4.933c1.138.686 2.283 1.395 3.435 2.127l1.341-2.11a173.68 173.68 0 00-3.485-2.158l-1.291 2.141zm8.491 5.461c.557.381 1.116.768 1.677 1.16l1.432-2.049c-.567-.397-1.134-.788-1.698-1.174l-1.411 2.063z" fill="#8C8C8C"/></svg>